<?xml version="1.0" standalone="no"?>
<!DOCTYPE svg PUBLIC "-//W3C//DTD SVG 20010904//EN"
 "http://www.w3.org/TR/2001/REC-SVG-20010904/DTD/svg10.dtd">
<svg version="1.0" xmlns="http://www.w3.org/2000/svg"
 width="151.000000pt" height="151.000000pt" viewBox="0 0 151.000000 151.000000"
 preserveAspectRatio="xMidYMid meet">
<metadata>
Created by potrace 1.11, written by Peter Selinger 2001-2013
</metadata>
<g transform="translate(0.000000,151.000000) scale(0.100000,-0.100000)"
fill="#000000" stroke="none">
<path d="M556 1460 c-1 -3 -2 -39 -2 -80 l1 -75 305 -1 305 0 52 -27 c171 -88
167 -328 -7 -417 l-45 -24 -580 0 -580 -1 0 -80 0 -80 575 0 c561 -1 576 -2
621 -22 153 -69 190 -262 74 -378 -66 -67 -97 -73 -390 -73 -138 0 -268 -1
-290 -1 l-40 -1 -1 -81 0 -80 321 3 c304 3 323 5 376 26 146 58 243 192 253
345 6 114 -32 220 -109 299 l-46 47 25 16 c34 23 92 110 112 170 22 65 22 194
0 255 -33 91 -106 176 -191 221 -75 40 -102 43 -423 44 -173 0 -315 -2 -316
-5z"/>
</g>
</svg>
