<?xml version="1.0" standalone="no"?>
<!DOCTYPE svg PUBLIC "-//W3C//DTD SVG 20010904//EN"
 "http://www.w3.org/TR/2001/REC-SVG-20010904/DTD/svg10.dtd">
<svg version="1.0" xmlns="http://www.w3.org/2000/svg"
 width="95.000000pt" height="95.000000pt" viewBox="0 0 95.000000 95.000000"
 preserveAspectRatio="xMidYMid meet">
<metadata>
Created by potrace 1.11, written by Peter Selinger 2001-2013
</metadata>
<g transform="translate(0.000000,95.000000) scale(0.100000,-0.100000)"
fill="#000000" stroke="none">
<path d="M350 880 l0 -50 188 0 c162 0 193 -3 229 -19 71 -33 103 -124 67
-194 -21 -39 -32 -50 -71 -71 -28 -14 -79 -16 -398 -16 l-365 0 0 -50 0 -49
378 -3 c425 -3 408 0 453 -84 39 -72 10 -157 -68 -198 -26 -13 -65 -16 -223
-16 l-190 0 0 -50 0 -50 194 0 c148 0 204 4 237 15 100 36 160 115 165 221 3
73 -11 119 -57 176 l-29 37 35 46 c19 25 40 65 46 88 25 93 -12 206 -86 263
-63 47 -95 53 -307 54 l-198 0 0 -50z"/>
</g>
</svg>
