<svg xmlns="http://www.w3.org/2000/svg" xmlns:xlink="http://www.w3.org/1999/xlink" width="53" height="51" viewBox="0 0 53 51"><defs><path id="3tmda" d="M585 1350.64c0 .5-.2.96-.54 1.3l-3.63 3.62a1.85 1.85 0 0 1-2.62 0l-10.28-10.25a1.83 1.83 0 0 1-.28-2.26l-10.56-10.52-3.67 3.65.3.29a1.9 1.9 0 0 1 0 2.68l-1.36 1.35a1.9 1.9 0 0 1-2.7 0l-10.36-10.33a1.89 1.89 0 0 1 0-2.69l1.35-1.34a1.91 1.91 0 0 1 2.7 0l.3.29 11.58-11.55-.3-.29a1.89 1.89 0 0 1 0-2.69l1.36-1.34a1.9 1.9 0 0 1 2.7 0l10.36 10.32a1.89 1.89 0 0 1 0 2.7l-1.35 1.34a1.9 1.9 0 0 1-2.7 0l-.29-.3-3.66 3.66 1.4 1.4c.3.3.3.78 0 1.07-.3.3-.77.3-1.07 0l-1.4-1.4-2.12 2.1 10.52 10.5 2.12-2.11-5.74-5.72a.75.75 0 0 1 0-1.07c.3-.3.78-.3 1.07 0l5.78 5.76a1.84 1.84 0 0 1 2.26.27l10.29 10.25c.35.35.54.82.54 1.3zm-29.1-37.4c0 .11.04.2.1.28l10.37 10.33c.15.15.4.15.55 0l1.35-1.35a.39.39 0 0 0 0-.55l-10.36-10.33a.39.39 0 0 0-.55 0l-1.35 1.35a.39.39 0 0 0-.12.28zm-3.26 24.3l-10.36-10.33a.39.39 0 0 0-.55 0l-1.35 1.34a.39.39 0 0 0 0 .55l10.36 10.33c.15.15.4.15.55 0l1.35-1.34a.39.39 0 0 0 0-.56zm7.1-9.8l4.2-4.18-7.64-7.61-11.59 11.54 7.64 7.62 4.2-4.19zm23.74 22.9a.33.33 0 0 0-.1-.24l-10.28-10.25a.34.34 0 0 0-.47 0l-3.41 3.4-.22.22a.34.34 0 0 0 0 .47l10.28 10.25c.09.09.19.1.24.1.05 0 .15-.01.24-.1l3.62-3.61c.1-.09.1-.19.1-.24zm-16.4 3.94v2.16c0 .7-.56 1.26-1.26 1.26h-29.55c-.7 0-1.27-.57-1.27-1.26v-2.16a3.3 3.3 0 0 1 3.3-3.28h1.15v-3.98c0-.89.73-1.61 1.62-1.61h2.11a.76.76 0 1 1 0 1.51h-2.1a.1.1 0 0 0-.1.1v3.98h20.13v-3.98a.1.1 0 0 0-.1-.1h-13.06a.76.76 0 1 1 0-1.51H561c.9 0 1.62.72 1.62 1.61v3.98h1.16a3.3 3.3 0 0 1 3.3 3.28zm-1.51 0c0-.97-.8-1.77-1.78-1.77h-25.5c-.98 0-1.77.8-1.77 1.77v1.9h29.05z"/></defs><g><g transform="translate(-533 -1308)"><use fill="#232836" xlink:href="#3tmda"/></g></g></svg>