<svg xmlns="http://www.w3.org/2000/svg" xmlns:xlink="http://www.w3.org/1999/xlink" width="45" height="51" viewBox="0 0 45 51"><defs><path id="t3cra" d="M981 961.49v25.55a2.96 2.96 0 0 1-2.96 2.96h-36.08a2.96 2.96 0 0 1-2.96-2.96V961.5a2.96 2.96 0 0 1 2.96-2.96h.05v-15.08c0-.8.65-1.45 1.45-1.45h7.52c.27 0 .53.08.75.21.22-.13.48-.21.75-.21H960c.8 0 1.45.65 1.46 1.45v1.56h1.6v-.05c0-.8.65-1.46 1.45-1.46h1.5c.8 0 1.46.65 1.46 1.46v4.55h4.6v-.04c0-.8.66-1.46 1.46-1.46h1.5c.8 0 1.46.65 1.46 1.46v9.06h1.55a2.96 2.96 0 0 1 2.96 2.96zm-7.52-2.96h1.6v-9.06a.05.05 0 0 0-.05-.05h-1.5a.05.05 0 0 0-.05.05zm-6.01 0h4.6v-7.61h-4.6zm-6.01 0h1.6v-8.31a.7.7 0 0 1 1.4 0v8.31h1.6v-13.57a.05.05 0 0 0-.05-.05h-1.5a.05.05 0 0 0-.05.05v2.25a.7.7 0 0 1-1.4 0v-.8h-1.6zm-9.03 0h7.62v-15.08a.05.05 0 0 0-.05-.04h-7.52a.05.05 0 0 0-.05.04zm-9.02 0h7.62v-15.08a.05.05 0 0 0-.05-.04h-7.52a.05.05 0 0 0-.05.04zm36.18 28.51V961.5c0-.86-.7-1.55-1.55-1.55h-36.08c-.86 0-1.55.7-1.55 1.55v25.55c0 .86.7 1.55 1.55 1.55h36.08c.86 0 1.55-.7 1.55-1.55zm-30.16-39.83a.7.7 0 0 1-.7.7h-3.01a.7.7 0 1 1 0-1.4h3c.4 0 .7.31.7.7zm0 3a.7.7 0 0 1-.7.71h-3.01a.7.7 0 1 1 0-1.4h3c.4 0 .7.3.7.7zm0 3.01a.7.7 0 0 1-.7.7h-3.01a.7.7 0 0 1 0-1.4h3c.4 0 .7.31.7.7zm9.02-6a.7.7 0 0 1-.7.7h-3.01a.7.7 0 1 1 0-1.41h3c.4 0 .7.31.7.7zm0 3a.7.7 0 0 1-.7.7h-3.01a.7.7 0 1 1 0-1.4h3c.4 0 .7.3.7.7zm0 3a.7.7 0 0 1-.7.7h-3.01a.7.7 0 0 1 0-1.4h3c.4 0 .7.31.7.7zm8.27 12.4a2.58 2.58 0 0 1-2.59 2.58h-8.26a2.58 2.58 0 0 1-.52-5.1.7.7 0 0 1 .28 1.37 1.18 1.18 0 0 0 .24 2.33h8.26a1.18 1.18 0 0 0 0-2.35h-5.63a.7.7 0 0 1 0-1.4h5.63a2.59 2.59 0 0 1 2.59 2.57zm8.74 11.46a.7.7 0 0 1-.99-.14l-.99-1.32v6.91a.7.7 0 1 1-1.4 0v-6.9l-1 1.31a.7.7 0 0 1-1.12-.84l2.26-3a.7.7 0 0 1 1.12 0l2.26 3a.7.7 0 0 1-.14.98zm.28 8.46a.7.7 0 0 1-.7.7h-4.52a.7.7 0 1 1 0-1.4h4.51c.4 0 .7.31.7.7z"/></defs><g><g transform="translate(-937 -940)"><use fill="#232836" xlink:href="#t3cra"/></g></g></svg>