<svg xmlns="http://www.w3.org/2000/svg" xmlns:xlink="http://www.w3.org/1999/xlink" width="51" height="47" viewBox="0 0 51 47"><defs><path id="adyla" d="M1224 7924.78v31.05c0 .43-.34.78-.77.78a.77.77 0 0 1-.76-.78v-24.07h-44.94v34.69h44.94v-7.5c0-.44.34-.79.76-.79.43 0 .77.35.77.78v8.28c0 .43-.34.78-.77.78h-46.46a.77.77 0 0 1-.77-.78v-42.44c0-.43.34-.78.77-.78h46.46c.43 0 .77.35.77.78zm-46.47 5.43h28.34v-4.66h-28.34zm44.94 0v-4.66h-15.07v4.66zm-6.7-2.33c0 .46-.36.83-.8.83a.82.82 0 0 1-.83-.83c0-.45.37-.83.82-.83.45 0 .82.38.82.83zm-4.18 0c0 .46-.37.83-.82.83a.82.82 0 0 1-.81-.83c0-.45.36-.83.81-.83.45 0 .82.38.82.83zm8.38 0c0 .46-.37.83-.82.83a.82.82 0 0 1-.82-.83c0-.45.37-.83.82-.83.45 0 .82.38.82.83zm-2.75 22.91c0 .43-.35.78-.77.78h-5a2.51 2.51 0 0 1-2.28 3.45 2.49 2.49 0 0 1-2.28-3.45h-2a5.37 5.37 0 0 1-4.89 3.52 5.37 5.37 0 0 1-4.9-3.52h-2a2.51 2.51 0 0 1-2.27 3.45 2.49 2.49 0 0 1-2.29-3.45h-5a.77.77 0 0 1-.76-.78c0-.43.35-.77.77-.77h11.15a6.56 6.56 0 0 1 .51-3.5h-4.53a.77.77 0 0 1-.77-.78c0-.42.34-.77.77-.77h5.55a5.17 5.17 0 0 1 3-1.66v-5.55c0-.43.35-.78.77-.78.42 0 .77.35.77.78v5.55c1.16.18 2.2.78 3 1.66h5.55c.43 0 .77.35.77.77 0 .43-.34.78-.77.78h-4.53a6.4 6.4 0 0 1 .51 3.5h11.15c.42 0 .77.34.77.77zm-26.4.78a.94.94 0 0 0-.93.95c0 .52.42.94.94.94.51 0 .93-.42.93-.94a.94.94 0 0 0-.93-.95zm13-2.4c0-2.41-1.71-4.37-3.82-4.37-2.1 0-3.83 1.96-3.83 4.37 0 2.4 1.72 4.36 3.83 4.36 2.1 0 3.83-1.95 3.83-4.36zm5.35 2.4a.94.94 0 0 0-.93.95c0 .52.42.94.93.94a.94.94 0 1 0 0-1.9zm-7.4-3.92c0 .43-.34.77-.77.77h-2a.77.77 0 0 1-.77-.77c0-.43.34-.78.77-.78h2c.43 0 .77.35.77.78zm15.45 10.8c0 .43-.35.78-.77.78h-32.9a.77.77 0 0 1-.77-.78c0-.43.35-.77.77-.77h32.9c.42 0 .77.34.77.77z"/></defs><g><g transform="translate(-1174 -7922)"><use fill="#232836" xlink:href="#adyla"/></g></g></svg>