<svg xmlns="http://www.w3.org/2000/svg" xmlns:xlink="http://www.w3.org/1999/xlink" width="21" height="21" viewBox="0 0 21 21"><defs><path id="a" d="M536 850a9 9 0 1 1 0-18 9 9 0 0 1 0 18zm3.36-7.6a1.8 1.8 0 0 0-.55-.79c-.17-.15-.43-.3-.77-.46.36-.05.66-.14.9-.28s.43-.32.59-.53a1.71 1.71 0 0 0 .17-1.72 2.01 2.01 0 0 0-.76-.84c-.14-.1-.3-.17-.5-.25l.26-1.36-1.31-.25-.25 1.28-.84-.16.24-1.28-1.32-.25-.24 1.28-2-.37-.2 1.07.3.06c.2.03.34.08.4.13.07.05.11.11.13.18.02.07 0 .22-.04.45l-.8 4.33c-.05.23-.09.37-.13.43-.05.05-.1.1-.18.12-.08.02-.22.01-.43-.03l-.3-.05-.2 1.07 2 .37-.24 1.28 1.32.25.24-1.28.74.14c.04 0 .07 0 .1.02l-.24 1.27 1.32.25.26-1.39c.23 0 .43-.02.6-.05.5-.1.9-.3 1.21-.6.32-.3.51-.65.59-1.07.06-.34.04-.67-.07-.98zm-1.72-2.32c-.14.13-.32.2-.55.24-.23.04-.56.01-1-.07l-.86-.16.36-1.9.85.17c.5.1.84.19 1.01.29.19.1.32.22.39.38.07.17.1.35.05.56a.88.88 0 0 1-.25.49zm-.66 1.65a1 1 0 0 1 .42.45c.08.18.1.38.05.62a1.11 1.11 0 0 1-.98.93c-.23.02-.5 0-.84-.06l-.57-.11c-.18-.04-.3-.07-.34-.1-.04-.02-.06-.06-.07-.12 0-.04.01-.19.05-.42l.32-1.68 1 .18c.45.09.77.19.96.3z"/></defs><g transform="translate(-525 -830)"><use fill="#28aae1" xlink:href="#a"/></g></svg>