<svg xmlns="http://www.w3.org/2000/svg" xmlns:xlink="http://www.w3.org/1999/xlink" width="85" height="26" viewBox="0 0 85 26"><defs><path id="a" d="M616.92 524a11.96 11.96 0 0 1-11.93-12c0-6.61 5.34-11.98 11.93-11.98s11.93 5.37 11.93 11.99c0 6.61-5.34 11.98-11.93 11.98zm4.54-8.82c.09-.46.06-.9-.09-1.31a2.38 2.38 0 0 0-.72-1.04c-.22-.2-.57-.4-1.02-.61.47-.07.87-.2 1.19-.38.31-.18.58-.42.78-.7a2.31 2.31 0 0 0 .23-2.3c-.2-.44-.54-.81-1.01-1.13-.18-.12-.41-.22-.66-.32l.34-1.82-1.74-.33-.32 1.7-1.12-.2.32-1.7-1.75-.34-.32 1.71-2.66-.5-.26 1.43.4.08c.28.04.46.1.54.18.09.06.14.14.17.23.02.1 0 .3-.05.6l-1.08 5.76c-.05.3-.1.5-.16.57a.42.42 0 0 1-.24.16c-.11.04-.3.02-.57-.03l-.4-.08-.27 1.43 2.66.5-.32 1.7 1.75.33.31-1.7 1 .19c.04 0 .08 0 .12.02l-.31 1.7 1.74.33.34-1.84c.3 0 .57-.03.81-.08.65-.12 1.18-.39 1.6-.8.41-.39.67-.86.77-1.41zm-2.37-4.4c-.19.17-.42.28-.72.32-.3.05-.75.02-1.34-.09l-1.13-.21.47-2.52 1.13.2c.66.13 1.1.26 1.34.39.25.14.42.3.51.52.1.22.13.46.08.73a1.2 1.2 0 0 1-.34.66zm-.87 2.2c.27.16.45.36.56.6.1.24.12.51.07.82-.07.36-.23.64-.48.87-.25.22-.52.34-.83.37-.3.02-.67 0-1.1-.08l-.76-.15c-.25-.04-.4-.09-.45-.12a.24.24 0 0 1-.1-.17c0-.05.02-.25.07-.56l.42-2.23 1.33.24c.59.11 1 .25 1.27.4zm67.53 5.13h-2.62l.93-4.94c.05-.32.1-.68.1-1 0-.62-.23-1.06-.88-1.06-.86 0-1.86 1.07-2.22 3.04l-.75 3.96h-2.6l1.12-6.02c.21-1.12.36-2.1.47-2.9h2.32l-.18 1.48h.04a3.74 3.74 0 0 1 3.12-1.68c1.45 0 2.27.9 2.27 2.43 0 .4-.07 1.07-.14 1.51zm-9.54-10.03c-.73 0-1.27-.49-1.27-1.27.02-.9.71-1.5 1.5-1.5.77 0 1.31.51 1.31 1.3 0 .93-.7 1.47-1.54 1.47zm-.71 10.03h-2.62l1.7-8.92h2.6zm-8.7.2c-2.25 0-3.76-1.47-3.76-3.68 0-3.1 2.14-5.64 5.3-5.64 2.38 0 3.76 1.64 3.76 3.67 0 3.26-2.21 5.65-5.3 5.65zm1.2-7.33c-1.5 0-2.27 2.2-2.25 3.6 0 1.03.5 1.73 1.42 1.73 1.43 0 2.23-2.1 2.23-3.63 0-.82-.35-1.7-1.4-1.7zm-6.94.11c-1.87 0-3.01 1.59-3.01 3.27 0 1.21.76 1.84 1.74 1.84.76 0 1.3-.18 1.76-.37l.02 2.01c-.57.27-1.48.46-2.53.46-2.2 0-3.74-1.34-3.74-3.65a5.58 5.58 0 0 1 5.8-5.66c.75 0 1.41.15 1.8.32l-.64 2a3.12 3.12 0 0 0-1.2-.22zm-6.21.1h-1.89l-.6 3.02a7 7 0 0 0-.15 1.13c0 .44.19.75.75.75.23 0 .49 0 .73-.04l-.31 2.06c-.34.13-.99.2-1.55.2-1.56 0-2.3-.8-2.3-1.91 0-.5.05-.99.18-1.66l.69-3.56h-1.12l.36-1.99h1.14l.36-1.87 2.67-.62-.47 2.5h1.88zm-7.56-3.1c-.73 0-1.27-.5-1.27-1.28.02-.9.7-1.5 1.5-1.5.77 0 1.31.51 1.31 1.3 0 .93-.7 1.47-1.54 1.47zm-.7 10.02h-2.62l1.69-8.92h2.61zm-9.22.2c-2.1 0-3.15-.9-3.15-2.5 0-.54.09-1.09.2-1.62l1.8-9.03h2.63l-1.06 5.1h.04a3.55 3.55 0 0 1 2.74-1.27c1.85 0 2.69 1.52 2.69 3.1 0 2.9-1.89 6.22-5.89 6.22zm1.98-7.2c-.94 0-1.87.97-2.18 2.52l-.16.73c-.04.3-.11.6-.1.98.02.64.4.98 1 .98 1.51 0 2.6-2.11 2.6-3.68 0-.86-.36-1.53-1.16-1.53z"/></defs><g transform="translate(-603 -499)"><use fill="#b2b8c3;" xlink:href="#a"/></g></svg>