<svg xmlns="http://www.w3.org/2000/svg" xmlns:xlink="http://www.w3.org/1999/xlink" width="173" height="213" viewBox="0 0 173 213"><defs><path id="umk5a" d="M556.5 7392a20.5 20.5 0 1 1 0 41 20.5 20.5 0 0 1 0-41z"/><path id="umk5b" d="M624.78 7342.11h-20.95a2.49 2.49 0 1 1 0-4.98h20.95c8.4 0 15.24-6.84 15.24-15.24s-6.84-15.23-15.24-15.23h-8.41a2.49 2.49 0 0 1-2.5-2.6 34.61 34.61 0 0 0-34.54-36.08 34.55 34.55 0 0 0-28.73 15.34 2.5 2.5 0 0 1-4.13-2.77 39.52 39.52 0 0 1 32.87-17.55 39.6 39.6 0 0 1 39.54 38.68h5.9a20.24 20.24 0 0 1 20.22 20.21 20.24 20.24 0 0 1-20.22 20.22zm-48.13-63.67a2.49 2.49 0 1 1 0-4.98 30.74 30.74 0 0 1 30.7 30.7 2.49 2.49 0 1 1-4.98 0 25.75 25.75 0 0 0-25.72-25.72zm-37.47 2.87c-1.63-.3-3.3-.44-4.96-.44a27.98 27.98 0 0 0-27.78 23.69 2.49 2.49 0 0 1-2.46 2.1h-8.76c-8.4 0-15.24 6.83-15.24 15.23s6.84 15.24 15.24 15.24h99.37a2.49 2.49 0 1 1 0 4.98h-43.84a20.24 20.24 0 0 1-20.08 22.56 20.24 20.24 0 0 1-20.08-22.56h-15.37a20.24 20.24 0 0 1-20.22-20.22 20.24 20.24 0 0 1 20.22-20.21h6.7a33.15 33.15 0 0 1 38.13-25.28 2.49 2.49 0 1 1-.87 4.9zm-3.46 60.8h-10.1a5.56 5.56 0 1 0 10.1 0zm-5.05 17.58a15.25 15.25 0 0 0 15.06-17.58h-4.77a10.56 10.56 0 1 1-20.57 0h-4.78a15.25 15.25 0 0 0 15.06 17.58zm47.14 10.55a20.24 20.24 0 0 1 20.22-20.22 20.24 20.24 0 0 1 20.22 20.22 20.24 20.24 0 0 1-20.22 20.22 20.24 20.24 0 0 1-20.22-20.22zm20.22 15.23c8.4 0 15.24-6.83 15.24-15.23s-6.84-15.24-15.24-15.24-15.23 6.84-15.23 15.24 6.83 15.23 15.23 15.23zm0-25.78a10.56 10.56 0 0 1 0 21.1 2.49 2.49 0 1 1 0-4.98 5.57 5.57 0 1 0-5.57-5.57 2.49 2.49 0 1 1-4.98 0c0-5.82 4.74-10.55 10.55-10.55z"/><path id="umk5f" d="M556.5 7403a9.5 9.5 0 1 1 0 19 9.5 9.5 0 0 1 0-19z"/><mask id="umk5d" width="2" height="2" x="-1" y="-1"><path fill="#fff" d="M534 7390h44v44h-44z"/><use xlink:href="#umk5a"/></mask><filter id="umk5c" width="124" height="134" x="494" y="7380" filterUnits="userSpaceOnUse"><feOffset dy="10" in="SourceGraphic" result="FeOffset1147Out"/><feGaussianBlur in="FeOffset1147Out" result="FeGaussianBlur1148Out" stdDeviation="12 12"/></filter><linearGradient id="umk5e" x1="536" x2="577" y1="7412" y2="7413" gradientUnits="userSpaceOnUse"><stop offset="0" stop-color="#e64e64"/><stop offset="1" stop-color="#fe9e63"/></linearGradient></defs><g><g transform="translate(-473 -7261)"><use fill="#b2b8c3" xlink:href="#umk5b"/></g><g transform="translate(-473 -7261)"><g filter="url(#umk5c)"><use fill="none" stroke-opacity=".3" stroke-width="0" mask="url(&quot;#umk5d&quot;)" xlink:href="#umk5a"/><use fill="#f33853" fill-opacity=".3" xlink:href="#umk5a"/></g><use fill="#f33853" xlink:href="#umk5a"/><use fill="url(#umk5e)" xlink:href="#umk5a"/></g><g transform="translate(-473 -7261)"><use fill="#fff" xlink:href="#umk5f"/></g></g></svg>