<svg xmlns="http://www.w3.org/2000/svg" xmlns:xlink="http://www.w3.org/1999/xlink" width="45" height="51" viewBox="0 0 45 51"><defs><path id="rxvta" d="M981 7932.74c0 5.93-5.84 10.75-13.03 10.75-2.27 0-4.44-.47-6.38-1.38a8.25 8.25 0 0 1-5.05 1.45 1.1 1.1 0 1 1-.78-1.85 6.1 6.1 0 0 0 1.5-2.85 9.43 9.43 0 0 1-2.32-6.12c0-5.92 5.85-10.74 13.03-10.74 7.19 0 13.03 4.82 13.03 10.74zm-1.4 0c0-5.14-5.22-9.33-11.63-9.33-6.4 0-11.62 4.19-11.62 9.33 0 1.95.74 3.82 2.14 5.4a.7.7 0 0 1 .2.57c0 .07-.16 1.76-1.45 3.43a6.98 6.98 0 0 0 2.93-.79l-.03-.02a.7.7 0 0 1-.23-.97.7.7 0 0 1 .96-.23 11.93 11.93 0 0 0 .98.55c1.84.92 3.93 1.4 6.12 1.4 6.41 0 11.63-4.19 11.63-9.34zm-5.72-3.38a.7.7 0 0 1-.7.7h-6.44a.7.7 0 0 1 0-1.4h6.44c.4 0 .7.31.7.7zm-8.53 0a.7.7 0 0 1-.7.7h-1.93a.7.7 0 0 1 0-1.4h1.93c.39 0 .7.31.7.7zm8.53 3.56a.7.7 0 0 1-.7.7h-10.46a.7.7 0 0 1-.7-.7c0-.39.32-.7.7-.7h10.46c.4 0 .7.31.7.7zm-4.2 3.56a.7.7 0 0 1-.7.7h-6.26a.7.7 0 0 1 0-1.4h6.25c.39 0 .7.31.7.7zm6.65 30.05v2.77a.7.7 0 0 1-.7.7h-9.54a.7.7 0 1 1 0-1.4h8.83v-2.07c0-2.04-.86-3.98-2.43-5.48a8.6 8.6 0 0 0-3.17-1.92l-.74 1.45 1.11 4.86a.7.7 0 0 1-.2.67l-2.18 2a.7.7 0 0 1-.95 0l-2.18-2a.7.7 0 0 1-.2-.67l1.1-4.86-.74-1.45a8.55 8.55 0 0 0-4.07 2.94c.5 1.18.78 2.42.82 3.68v2.84h2.66a.7.7 0 0 1 0 1.4h-17.48a.7.7 0 1 1 0-1.4h13.42v-2.55-.23-.09l-.01-.15v-.1l-.02-.13v-.1l-.02-.13-.01-.1-.02-.14-.01-.08-.03-.16v-.06a8.13 8.13 0 0 0-.04-.19v-.03a8.78 8.78 0 0 0-.7-2.05l-.02-.04a9.63 9.63 0 0 0-2.03-2.76 10.25 10.25 0 0 0-3.86-2.32l-.95 1.85 1.32 5.75a.7.7 0 0 1-.2.68l-2.57 2.36a.7.7 0 0 1-.95 0l-2.56-2.36a.7.7 0 0 1-.21-.68l1.32-5.75-.95-1.85a10.25 10.25 0 0 0-3.86 2.32 9.03 9.03 0 0 0-2.9 6.54v2.55h3.52a.7.7 0 0 1 0 1.4h-4.23a.7.7 0 0 1-.7-.7v-3.25c0-4.72 3.41-8.89 7.95-10.27a5.67 5.67 0 0 1-2.55-4.74v-4.27a5.66 5.66 0 0 1 5.65-5.67 5.67 5.67 0 0 1 5.64 5.67v4.27a5.67 5.67 0 0 1-2.55 4.74c2.7.82 5 2.63 6.42 4.95a10.01 10.01 0 0 1 4.41-2.95 4.93 4.93 0 0 1-2.04-4v-3.63c0-2.71 2.2-4.92 4.9-4.92s4.9 2.2 4.9 4.92v3.64c0 1.64-.8 3.1-2.03 3.99 3.8 1.25 6.63 4.77 6.63 8.76zm-30.53-19.77v1.4c3.33-.28 4.57-2.5 4.58-2.53a.7.7 0 0 1 1.27.08c.04.1.8 2 2.64 2.4v-1.35c0-2.35-1.9-4.27-4.24-4.27a4.26 4.26 0 0 0-4.25 4.27zm6.04 17.94l-1.16-5.06h-1.26l-1.16 5.06 1.79 1.64zm-2.55-6.47h1.52l.71-1.4-.1-.01h-.03a9.77 9.77 0 0 0-.52-.08h-.12l-.3-.03h-.73a4.2 4.2 0 0 0-.5.03 10.27 10.27 0 0 0-.51.07h-.04l-.1.03zm5-7.2v-1.48a4.99 4.99 0 0 1-3.4-2.3 7.47 7.47 0 0 1-5.09 2.32v1.46c0 2.3 1.82 4.17 4.08 4.26H950.2a4.26 4.26 0 0 0 4.08-4.26zm9.04-.89v1.08c2.69-.27 3.68-2.07 3.7-2.09a.7.7 0 0 1 1.27.09c.02.07.61 1.55 2.03 1.94v-1.02a3.51 3.51 0 0 0-3.5-3.52 3.51 3.51 0 0 0-3.5 3.52zm4.9 15.21l-.95-4.16h-.9l-.95 4.16 1.4 1.3zm-1.98-5.56h1.16l.52-1-.32-.05h-.01a8.53 8.53 0 0 0-.34-.03h-.08l-.24-.01H966.48l-.15.02-.13.01a8.57 8.57 0 0 0-.27.03l-.1.01-.09.02zm4.08-6.01v-1.18a4.32 4.32 0 0 1-2.79-1.87 6.45 6.45 0 0 1-4.2 1.9v1.15c0 1.89 1.49 3.44 3.36 3.51h.28a3.51 3.51 0 0 0 3.35-3.51z"/></defs><g><g transform="translate(-937 -7920)"><use fill="#232836" xlink:href="#rxvta"/></g></g></svg>