<svg xmlns="http://www.w3.org/2000/svg" xmlns:xlink="http://www.w3.org/1999/xlink" width="51" height="51" viewBox="0 0 51 51"><defs><path id="60a2a" d="M584 3294.66v15.65c0 4.47-2.85 9.69-10.87 9.69-8.03 0-10.87-5.22-10.87-9.7v-15.64c0-4.47 2.84-9.69 10.87-9.69 8.02 0 10.87 5.22 10.87 9.7zm-1.53 0c0-.94-.18-3.34-1.85-5.3-1.62-1.9-4.14-2.86-7.5-2.86-3.35 0-5.87.96-7.48 2.86a8.38 8.38 0 0 0-1.85 5.3v15.65c0 .94.18 3.34 1.85 5.3 1.61 1.9 4.13 2.86 7.49 2.86 3.35 0 5.87-.96 7.49-2.86a8.38 8.38 0 0 0 1.85-5.3zm-21.74-15.34v20.4a7.34 7.34 0 0 1-14.7-.05v-6.1a10.81 10.81 0 0 1 .76-21.57 10.81 10.81 0 0 1 .77 21.58v6.1a5.83 5.83 0 0 0 11.64.03v-20.4a7.34 7.34 0 0 1 14.7.05v3.31a.77.77 0 1 1-1.54 0v-3.31a5.83 5.83 0 0 0-11.63-.04zm-13.94 12.76a9.28 9.28 0 0 0 0-18.55 9.28 9.28 0 0 0 0 18.55zm.58-7.66c0-.4-.2-.6-.9-.92-.58-.27-1.78-.84-1.78-2.32 0-.89.56-1.65 1.34-1.96v-.33a.77.77 0 1 1 1.53 0v.33c.78.3 1.34 1.07 1.34 1.96a.77.77 0 1 1-1.53 0 .58.58 0 0 0-1.15 0c0 .4.2.6.9.93.58.27 1.78.83 1.78 2.31 0 .9-.56 1.66-1.34 1.96v.33a.77.77 0 1 1-1.53 0v-.33a2.11 2.11 0 0 1-1.35-1.96.77.77 0 1 1 1.53 0 .58.58 0 0 0 1.16 0zm-.58 6.12a7.74 7.74 0 0 1-7.54-6.04.77.77 0 0 1 1.5-.33 6.21 6.21 0 1 0 6.05-7.57 6.25 6.25 0 0 0-6.06 4.84.76.76 0 1 1-1.49-.34 7.78 7.78 0 0 1 7.54-6.04 7.74 7.74 0 0 1 0 15.48zm27.1 11.18h6.28a.77.77 0 0 1 0 1.53h-14.09a.77.77 0 0 1 0-1.53h6.28v-2.66a2.74 2.74 0 0 1-1.97-2.63v-3.64c0-1.24.84-2.3 1.97-2.63v-1.36a.77.77 0 1 1 1.53 0v1.36a2.74 2.74 0 0 1 1.97 2.63v3.64c0 1.24-.83 2.3-1.97 2.63zm-.76-4.09c.66 0 1.2-.54 1.2-1.2v-3.64a1.2 1.2 0 0 0-2.4 0v3.64c0 .66.53 1.2 1.2 1.2z"/></defs><g><g transform="translate(-534 -3270)"><use fill="#232836" xlink:href="#60a2a"/></g></g></svg>