<svg xmlns="http://www.w3.org/2000/svg" xmlns:xlink="http://www.w3.org/1999/xlink" width="38" height="51" viewBox="0 0 38 51"><defs><path id="pv82a" d="M492.88 7944.21v3.07c0 .42-.35.76-.78.76h-6.39a.77.77 0 0 1-.77-.76v-3.07c0-.42.34-.76.77-.76h6.4c.42 0 .77.34.77.76zm-1.55.77h-4.85v1.53h4.85zm-17.35 14.3v5.87c0 .42-.34.76-.77.76h-6.31a.77.77 0 0 1-.78-.76v-5.87c0-.43.35-.77.78-.77h6.31c.43 0 .77.34.77.77zm-1.54.76h-4.77v4.34h4.77zm10.95-.76v5.87c0 .42-.34.76-.77.76h-6.32a.77.77 0 0 1-.77-.76v-5.87c0-.43.35-.77.77-.77h6.32c.43 0 .77.34.77.77zm-1.54.76h-4.77v4.34h4.77zm-7.87-9.7v5.87c0 .43-.34.77-.77.77h-6.31a.77.77 0 0 1-.78-.77v-5.87c0-.42.35-.77.78-.77h6.31c.43 0 .77.35.77.77zm-1.54.77h-4.77v4.34h4.77zm10.95-.77v5.87c0 .43-.34.77-.77.77h-6.32a.77.77 0 0 1-.77-.77v-5.87c0-.42.35-.77.77-.77h6.32c.43 0 .77.35.77.77zm-1.54.77h-4.77v4.34h4.77zm11.03-.77v6.64c0 .42-.35.76-.78.76a.77.77 0 0 1-.77-.76v-5.87h-4.85v13.27h4.85v-4.34c0-.42.35-.76.77-.76.43 0 .78.34.78.76v5.1c0 .43-.35.77-.78.77h-6.39a.77.77 0 0 1-.77-.76v-14.81c0-.42.34-.77.77-.77h6.4c.42 0 .77.35.77.77zm4.12-24.51v40.34a3.85 3.85 0 0 1-3.87 3.83h-27.26a3.85 3.85 0 0 1-3.87-3.83v-40.34a3.85 3.85 0 0 1 3.87-3.83h27.26a3.85 3.85 0 0 1 3.87 3.83zm-1.55 0c0-1.27-1.04-2.3-2.32-2.3h-27.26a2.31 2.31 0 0 0-2.32 2.3v40.34c0 1.27 1.04 2.3 2.32 2.3h27.26a2.31 2.31 0 0 0 2.32-2.3zm-2.57 1.02v9.2c0 .42-.35.76-.78.76h-25.13a.77.77 0 0 1-.77-.77v-9.19c0-.42.35-.77.77-.77h25.13c.43 0 .78.35.78.77zm-25.13 8.43h2l7.73-7.66h-9.73zm23.58-7.66h-5.48l-3.32 3.28a.77.77 0 0 1-1.1 0 .76.76 0 0 1 0-1.08l2.23-2.2h-4l-7.73 7.66h4l3.32-3.3c.3-.3.8-.3 1.1 0 .3.3.3.8 0 1.1l-2.23 2.2h13.21zm1.55 12.5c0 .43-.35.77-.78.77h-15.8a.77.77 0 0 1-.77-.76c0-.43.35-.77.77-.77h15.8c.43 0 .78.34.78.77zm-18.9 0c0 .43-.34.77-.77.77h-6.24a.77.77 0 0 1-.77-.76c0-.43.35-.77.77-.77h6.24c.43 0 .77.34.77.77z"/></defs><g><g transform="translate(-460 -7920)"><use fill="#232836" xlink:href="#pv82a"/></g></g></svg>