<svg xmlns="http://www.w3.org/2000/svg" xmlns:xlink="http://www.w3.org/1999/xlink" width="40" height="51" viewBox="0 0 40 51"><defs><path id="uedqa" d="M1435.32 7937.86v3.8a2.52 2.52 0 0 1 1.78 2.43c0 1.14-.75 2.11-1.78 2.42v3.8a2.52 2.52 0 0 1 1.78 2.42 2.5 2.5 0 0 1-2.48 2.53 2.5 2.5 0 0 1-2.47-2.53c0-1.14.75-2.11 1.78-2.42v-3.8a2.52 2.52 0 0 1-1.78-2.42c0-1.15.75-2.12 1.78-2.42v-3.8a2.52 2.52 0 0 1-1.78-2.43 2.5 2.5 0 0 1 2.47-2.52 2.5 2.5 0 0 1 2.48 2.52c0 1.15-.75 2.12-1.78 2.42zm-.7 13.76c-.6 0-1.08.5-1.08 1.11 0 .62.48 1.12 1.08 1.12.6 0 1.1-.5 1.1-1.12a1.1 1.1 0 0 0-1.1-1.11zm0-8.65c-.6 0-1.08.5-1.08 1.12 0 .61.48 1.12 1.08 1.12.6 0 1.1-.5 1.1-1.12a1.1 1.1 0 0 0-1.1-1.12zm1.1-7.53a1.1 1.1 0 0 0-1.1-1.11c-.6 0-1.08.5-1.08 1.11 0 .62.48 1.12 1.08 1.12.6 0 1.1-.5 1.1-1.12zm12.06 18.66a.7.7 0 0 1-.7.7h-7.11a.7.7 0 0 1-.7-.7c0-.39.31-.7.7-.7h7.12c.38 0 .7.31.7.7zm6.23-20.02a.7.7 0 0 1-.69.7h-13.35a.7.7 0 0 1-.7-.7c0-.39.31-.7.7-.7h13.35c.38 0 .7.31.7.7zm-14.74 2.73c0-.39.31-.7.7-.7h7.12c.38 0 .7.31.7.7a.7.7 0 0 1-.7.7h-7.12a.7.7 0 0 1-.7-.7zm19.73-3v29.84a2.5 2.5 0 0 1-2.47 2.53h-.56v1.3a2.5 2.5 0 0 1-2.47 2.52h-26.35a2.5 2.5 0 0 1-2.48-2.52v-28.6h-1.09a1.6 1.6 0 0 1-1.58-1.62v-9.1a3.4 3.4 0 0 1 3.36-3.43h10.66v-.2a2.5 2.5 0 0 1 2.48-2.53h6.67a2.5 2.5 0 0 1 2.48 2.52v.21h7.98a3.4 3.4 0 0 1 3.36 3.43v5.54l.01.1zm-21.59-9.29v.21h8.85v-.2a1.1 1.1 0 0 0-1.09-1.12h-6.67c-.6 0-1.09.5-1.09 1.11zm-1.2 1.62v.2a2 2 0 0 0 1.98 2.03h7.3a2 2 0 0 0 1.97-2.03v-.2zm21.4 37.51v-29.74a.7.7 0 0 1 0-.1v-5.65a2 2 0 0 0-1.98-2.02h-6.78v.2a3.4 3.4 0 0 1-3.36 3.44h-7.3a3.4 3.4 0 0 1-3.37-3.44v-.2h-6.74c.4.56.65 1.27.65 2.02v35.5c0 .61.5 1.11 1.1 1.11h.88a5 5 0 0 1-.71-2.58 4.91 4.91 0 0 1 5.72-4.88.7.7 0 0 1 .55.82.7.7 0 0 1-.8.57 3.51 3.51 0 0 0-4.08 3.5 3.51 3.51 0 0 0 3.46 3.54c1.91 0 3.47-1.6 3.47-3.55 0-.6-.15-1.2-.44-1.72l-2.3 3.65-.01.02a.87.87 0 0 1-.71.39.87.87 0 0 1-.7-.37l-1.79-2.27a.7.7 0 0 1 .11-.98c.3-.25.74-.2.98.1l1.35 1.72 3.68-5.82c.2-.33.64-.43.96-.22a.7.7 0 0 1 .21.97l-.96 1.52a5 5 0 0 1 1 3.01 4.91 4.91 0 0 1-4.85 4.95 4.76 4.76 0 0 1-2.87-.96h-2.16a2.5 2.5 0 0 1-2.47-2.53v-35.49a2 2 0 0 0-1.99-2.02 2 2 0 0 0-1.97 2.02v9.1c0 .12.09.21.2.21h1.08v-9.37a.7.7 0 0 1 1.39 0v39.38c0 .61.49 1.11 1.09 1.11h26.35c.6 0 1.09-.5 1.09-1.11v-1.3h-14.09a.7.7 0 0 1-.7-.7c0-.4.32-.7.7-.7h16.03c.6 0 1.08-.51 1.08-1.13zm-3.6-12.28a.7.7 0 0 1-.69.7h-13.35a.7.7 0 0 1-.7-.7c0-.39.31-.7.7-.7h13.35c.38 0 .7.31.7.7zm-14.74-5.92c0-.39.31-.7.7-.7h7.12c.38 0 .7.31.7.7a.7.7 0 0 1-.7.7h-7.12a.7.7 0 0 1-.7-.7zm14.74-2.73a.7.7 0 0 1-.69.7h-13.35a.7.7 0 0 1-.7-.7c0-.38.31-.7.7-.7h13.35c.38 0 .7.32.7.7z"/></defs><g><g transform="translate(-1420 -7920)"><use fill="#232836" xlink:href="#uedqa"/></g></g></svg>