<svg xmlns="http://www.w3.org/2000/svg" xmlns:xlink="http://www.w3.org/1999/xlink" width="57" height="51" viewBox="0 0 57 51"><defs><path id="353ha" d="M1379.6 1333.72l-18.74 23.86c-.2.27-.52.42-.86.42-.34 0-.66-.15-.86-.42l-4.76-6.05a.77.77 0 0 1 .15-1.09.8.8 0 0 1 1.1.14l2.75 3.5-5.2-20.22h-10.68l10.1 12.85c.26.34.2.82-.15 1.08a.8.8 0 0 1-1.1-.14l-10.94-13.93c-.27-.34-.3-.81-.08-1.19l6.26-10.54c.2-.33.56-.53.94-.53h24.94c.38 0 .74.2.94.53l2.08 3.5c.22.37.09.84-.29 1.06a.8.8 0 0 1-1.07-.28l-1.5-2.5-5.06 8.54h10.14l-1.07-1.8a.77.77 0 0 1 .28-1.07.8.8 0 0 1 1.08.28l1.67 2.81c.22.38.2.85-.08 1.2zm-8.33-10.71h-9.92l4.86 8.5zm-11.27.8l-4.86 8.5h9.72zm-17.71 8.5h10.14l-5.07-8.54zm11.5-.8l4.86-8.5h-9.92zm11.4 2.35h-10.38l5.19 20.2zm12.3 0h-10.68l-5.19 20.22zm-16.7-23.09v3.51c0 .43-.35.78-.79.78a.78.78 0 0 1-.79-.78v-3.5c0-.43.35-.78.79-.78.44 0 .79.35.79.77zm18.3 6.37l-2.52 2.49a.8.8 0 0 1-1.12 0c-.3-.3-.3-.8 0-1.1l2.53-2.48c.3-.3.8-.3 1.11 0 .31.3.31.8 0 1.1zm7.91 17.67c0 .43-.35.77-.79.77h-3.57a.78.78 0 0 1-.79-.77c0-.43.35-.78.79-.78h3.57c.44 0 .79.35.79.78zm-48.85 0c0 .43-.35.77-.79.77h-3.57a.78.78 0 0 1-.79-.77c0-.43.35-.78.79-.78h3.57c.44 0 .79.35.79.78zm6.4-15.18a.8.8 0 0 1-1.12 0l-2.52-2.49c-.31-.3-.31-.79 0-1.1.3-.3.8-.3 1.11 0l2.53 2.5c.3.3.3.78 0 1.09z"/></defs><g><g transform="translate(-1331 -1308)"><use fill="#232836" xlink:href="#353ha"/></g></g></svg>