<svg xmlns="http://www.w3.org/2000/svg" xmlns:xlink="http://www.w3.org/1999/xlink" width="51" height="44" viewBox="0 0 51 44"><defs><path id="6hoxa" d="M1284 6575.17v29.6a3.26 3.26 0 0 1-3.27 3.23h-41.46a3.26 3.26 0 0 1-3.27-3.24v-34.52a3.25 3.25 0 0 1 3.27-3.24h22.61c1.37 0 2.7.57 3.62 1.57l3.13 3.36h12.1c1.8 0 3.27 1.45 3.27 3.24zm-22.12-6.63h-1.38l.03.03 3.13 3.36h2.86l-2.16-2.31a3.4 3.4 0 0 0-2.48-1.08zm-6.74 0l.03.03 3.13 3.36h3.24l-2.16-2.31a3.4 3.4 0 0 0-2.47-1.08zm-17.58 1.7v2.17c.5-.3 1.08-.48 1.7-.48h16.92l-2.15-2.31a3.4 3.4 0 0 0-2.48-1.08h-12.28a1.7 1.7 0 0 0-1.71 1.7zm44.88 4.93c0-.94-.76-1.7-1.7-1.7h-41.47a1.7 1.7 0 0 0-1.71 1.7v29.6c0 .93.76 1.69 1.7 1.69h41.47a1.7 1.7 0 0 0 1.71-1.7zm-3.42 3.29v8.22c0 .88-.72 1.59-1.6 1.59h-11.61a1.6 1.6 0 0 1-1.61-1.6v-8.21c0-.88.72-1.6 1.6-1.6h11.62c.88 0 1.6.72 1.6 1.6zm-1.55 0a.05.05 0 0 0-.05-.05h-11.61a.05.05 0 0 0-.06.05v8.22c0 .03.03.05.06.05h11.6c.04 0 .06-.02.06-.05zm-1.76 2.46c0 .43-.35.77-.78.77h-6.64a.77.77 0 0 1-.77-.77c0-.42.34-.77.77-.77h6.64c.43 0 .78.35.78.77zm0 3.3c0 .42-.35.76-.78.76h-6.64a.77.77 0 0 1-.77-.77c0-.42.34-.77.77-.77h6.64c.43 0 .78.35.78.77z"/></defs><g><g transform="translate(-1234 -6565)"><use fill="#232836" xlink:href="#6hoxa"/></g></g></svg>