<svg xmlns="http://www.w3.org/2000/svg" xmlns:xlink="http://www.w3.org/1999/xlink" width="233" height="273" viewBox="0 0 233 273"><defs><path id="uzpea" d="M445 2779a6 6 0 0 1 6-6h218a6 6 0 0 1 6 6v258a6 6 0 0 1-6 6H451a6 6 0 0 1-6-6z"/><path id="uzpeb" d="M603.72 2932.98h-5.06v.02h-16.4v-.02h-44.52v.02h-16.4v-.02h-5.06a6.29 6.29 0 0 1-6.28-6.28v-87.42a6.29 6.29 0 0 1 6.28-6.28h87.44a6.28 6.28 0 0 1 6.28 6.28v87.42a6.29 6.29 0 0 1-6.28 6.28zm2.1-6.28v-87.42a2.1 2.1 0 0 0-2.1-2.1h-87.44a2.1 2.1 0 0 0-2.1 2.1v87.42c0 1.15.94 2.1 2.1 2.1h87.44a2.1 2.1 0 0 0 2.1-2.1zm-45.56-23.66a20.06 20.06 0 1 1 0-40.11 20.06 20.06 0 0 1 0 40.11zm14.06-32.3l-.1-.09a2.1 2.1 0 0 0-2.96 0l-3.25 3.25a11.95 11.95 0 1 0 2.74 3.36l3.57-3.55a2.1 2.1 0 0 0 0-2.96z"/></defs><g><g transform="translate(-443 -2771)"><use fill="#fff" xlink:href="#uzpea"/></g><g transform="translate(-443 -2771)"><use fill="#f33853" xlink:href="#uzpeb"/></g></g></svg>