<svg xmlns="http://www.w3.org/2000/svg" xmlns:xlink="http://www.w3.org/1999/xlink" width="99" height="27" viewBox="0 0 99 27"><defs><path id="a" d="M722.97 512.02l-7.74 4.37-7.73-4.38 7.74-12.01zm-15.47 1.64l7.73 4.35 7.73-4.35-7.73 10.34zm30.63.11a2.53 2.53 0 0 0-.75-1.74 2.54 2.54 0 0 0-1.8-.61c-.69 0-1.27.21-1.73.64-.47.43-.74 1-.81 1.71zm1.35.97h-6.51c.03 1.06.3 1.89.79 2.49.5.6 1.17.9 2 .9.6 0 1.14-.16 1.6-.49a3.6 3.6 0 0 0 1.13-1.47l1.04.57a4.52 4.52 0 0 1-1.54 1.83c-.6.39-1.35.58-2.23.58-1.2 0-2.17-.4-2.9-1.2a4.46 4.46 0 0 1-1.12-3.15c0-1.34.37-2.42 1.1-3.25a3.69 3.69 0 0 1 2.89-1.23c1.13 0 2.04.38 2.72 1.14a4.36 4.36 0 0 1 1.03 3.03zm2.6-3.15h-1.5v-.97h1.5v-3.35h1.12v3.35h1.64v.97h-1.64v7.2h-1.12zm4.45 7.2v-14.27h1.08v7.37c.33-.53.74-.92 1.23-1.18.48-.26 1.03-.39 1.66-.39.93 0 1.66.26 2.17.77.52.52.78 1.24.78 2.16v5.54h-1.16v-5.03c0-.82-.17-1.43-.5-1.82-.35-.4-.88-.6-1.6-.6-.86 0-1.5.26-1.9.77-.42.51-.62 1.32-.62 2.42v4.26zm15.54-5.02a2.53 2.53 0 0 0-.74-1.74 2.54 2.54 0 0 0-1.8-.61c-.7 0-1.27.21-1.74.64-.46.43-.73 1-.8 1.71zm1.35.97h-6.5c.02 1.06.29 1.89.79 2.49.5.6 1.16.9 2 .9.6 0 1.13-.16 1.59-.49a3.6 3.6 0 0 0 1.13-1.47l1.05.57a4.52 4.52 0 0 1-1.54 1.83c-.6.39-1.35.58-2.23.58-1.2 0-2.17-.4-2.91-1.2a4.46 4.46 0 0 1-1.12-3.15c0-1.34.37-2.42 1.1-3.25a3.69 3.69 0 0 1 2.9-1.23c1.12 0 2.03.38 2.72 1.14a4.36 4.36 0 0 1 1.02 3.03zm3.5-2.48c.42-.7.83-1.2 1.23-1.5.4-.3.88-.44 1.41-.44a2.61 2.61 0 0 1 .97.18l-.37 1.06a3.69 3.69 0 0 0-.76-.12c-.69 0-1.27.31-1.75.95a3.84 3.84 0 0 0-.73 2.39v4.01h-1.13v-8.17h1.13zm10.51 1.51a2.53 2.53 0 0 0-.75-1.74 2.54 2.54 0 0 0-1.8-.61c-.69 0-1.27.21-1.73.64-.46.43-.73 1-.8 1.71zm1.35.97h-6.51c.03 1.06.3 1.89.8 2.49.5.6 1.16.9 2 .9.6 0 1.13-.16 1.58-.49a3.6 3.6 0 0 0 1.14-1.47l1.04.57a4.52 4.52 0 0 1-1.53 1.83c-.61.39-1.35.58-2.23.58-1.2 0-2.18-.4-2.92-1.2a4.46 4.46 0 0 1-1.11-3.15c0-1.34.37-2.42 1.1-3.25a3.69 3.69 0 0 1 2.89-1.23c1.13 0 2.04.38 2.72 1.14a4.36 4.36 0 0 1 1.03 3.03zm3.5-4.12v4.08c0 1.24.18 2.12.53 2.63.35.5.95.76 1.8.76.83 0 1.43-.26 1.8-.77.36-.52.54-1.39.54-2.62v-4.08h1.13v4.66c0 1.27-.3 2.24-.88 2.89-.58.65-1.44.98-2.58.98-1.13 0-2-.33-2.6-.98-.58-.65-.88-1.62-.88-2.89v-4.66zm9.96 8.17h-1.13v-8.17h1.13v1.28c.27-.51.63-.9 1.07-1.17.45-.27.96-.4 1.54-.4.6 0 1.1.13 1.53.4.42.27.74.67.97 1.2a3.3 3.3 0 0 1 1.2-1.2c.47-.28 1.02-.4 1.65-.4.87 0 1.55.25 2.05.78a3 3 0 0 1 .75 2.16v5.52h-1.14v-5.07c0-.8-.16-1.4-.49-1.8-.33-.41-.82-.61-1.47-.61-.78 0-1.36.25-1.72.76-.37.51-.55 1.32-.55 2.42v4.3h-1.13v-5.07c0-.84-.16-1.45-.47-1.83-.32-.39-.8-.58-1.46-.58-.8 0-1.39.25-1.76.77-.38.52-.57 1.32-.57 2.41z"/></defs><g transform="translate(-706 -498)"><use fill="#b2b8c3;" xlink:href="#a"/></g></svg>