<svg xmlns="http://www.w3.org/2000/svg" xmlns:xlink="http://www.w3.org/1999/xlink" width="51" height="51" viewBox="0 0 51 51"><defs><path id="cjlza" d="M973.36 1715.36a18.77 18.77 0 0 1-13.36 5.53c-5.05 0-9.8-1.96-13.36-5.53A18.92 18.92 0 0 1 960 1683.1c5.05 0 9.8 1.96 13.36 5.53a18.92 18.92 0 0 1 0 26.72zm4.17-13.36c0-4.68-1.83-9.08-5.14-12.4a17.41 17.41 0 0 0-12.39-5.13 17.55 17.55 0 0 0 0 35.05c4.68 0 9.08-1.82 12.4-5.13a17.41 17.41 0 0 0 5.13-12.4zm6.47 0c0 6.41-2.5 12.44-7.03 16.97a24.03 24.03 0 0 1-28.47 4.1.68.68 0 0 1 .66-1.2A22.66 22.66 0 0 0 976 1718a22.49 22.49 0 0 0 6.63-16c0-6.88-3.07-13.3-8.43-17.62a.68.68 0 0 1 .86-1.07A23.9 23.9 0 0 1 984 1702zm-12.38-20.23a.68.68 0 0 1-.93.28 22.67 22.67 0 0 0-26.7 3.95 22.48 22.48 0 0 0-6.62 16c0 6.8 3.02 13.18 8.28 17.5a.68.68 0 0 1-.87 1.06A23.93 23.93 0 0 1 936 1702c0-6.41 2.5-12.44 7.03-16.97a24.04 24.04 0 0 1 28.3-4.19c.34.18.46.6.29.93zm-10.94-1.06v1.1a.68.68 0 0 1-1.36 0v-1.1a.68.68 0 1 1 1.36 0zm0 41.48v1.1a.68.68 0 1 1-1.36 0v-1.1a.68.68 0 1 1 1.36 0zm21.3-20.2c0 .39-.31.7-.69.7h-1.1a.68.68 0 0 1 0-1.37h1.1c.38 0 .69.3.69.68zm-41.5 0c0 .39-.3.7-.67.7h-1.1a.68.68 0 0 1 0-1.37h1.1c.37 0 .68.3.68.68zm35.06-14.56l-.78.77a.68.68 0 0 1-.96 0 .68.68 0 0 1 0-.96l.77-.78a.69.69 0 0 1 .97.97zm-29.34 29.33l-.77.78a.68.68 0 0 1-.97-.97l.78-.77a.69.69 0 0 1 .96.96zm29.34.78a.68.68 0 0 1-.97 0l-.77-.78a.68.68 0 0 1 .96-.96l.78.77c.27.27.27.7 0 .97zm-29.34-29.34a.68.68 0 0 1-.96 0l-.78-.77a.68.68 0 0 1 .97-.97l.77.78c.27.26.27.7 0 .96zm22.98-5.42l-.44 1a.68.68 0 1 1-1.25-.55l.44-1a.68.68 0 1 1 1.25.55zm-16.67 37.99l-.44 1a.68.68 0 1 1-1.25-.55l.44-1a.68.68 0 1 1 1.25.55zm27.61-9.94a.68.68 0 0 1-.9.35l-1-.44a.68.68 0 0 1 .55-1.25l1 .44c.35.15.5.55.35.9zm-37.99-16.67a.68.68 0 0 1-.9.35l-1-.44a.68.68 0 0 1 .55-1.25l1 .44c.35.15.5.56.35.9zm37.95.74l-1.02.4a.69.69 0 0 1-.88-.4.68.68 0 0 1 .39-.88l1.02-.4a.68.68 0 0 1 .5 1.28zm-38.65 15.08l-1.02.4a.68.68 0 0 1-.5-1.28l1.03-.4a.68.68 0 0 1 .5 1.28zm26.56 12.5a.68.68 0 0 1-.89-.39l-.4-1.03a.69.69 0 0 1 1.28-.5l.4 1.03a.68.68 0 0 1-.4.88zm-15.08-38.66a.68.68 0 0 1-.89-.39l-.4-1.02a.68.68 0 0 1 1.28-.5l.4 1.03a.68.68 0 0 1-.4.88zm3.97 15.94v-6.45c0-.39.32-.7.7-.7h3.8c2.57 0 4.04 1.39 4.04 3.81 0 2.61-1.4 4.05-3.97 4.05h-3.86a.7.7 0 0 1-.7-.7zm1.41-.7h3.16c1.8 0 2.57-.79 2.57-2.64 0-1.03-.28-2.4-2.64-2.4h-3.09zm7.72 7.32v.52c0 3.04-1.55 4.72-4.37 4.72h-4.05a.7.7 0 0 1-.7-.7v-8.43c0-.4.3-.7.7-.7h4.05c2.9 0 4.37 1.54 4.37 4.59zm-1.4 0c0-2.27-.87-3.19-2.97-3.19h-3.35v7.02h3.35c2.02 0 2.96-1.05 2.96-3.31zm4.84.16v.62c0 2.14-.46 3.85-1.37 5.09a5.66 5.66 0 0 1-3.14 2.1v.96a2.22 2.22 0 0 1-4.44 0v-.64h-.24v.64a2.22 2.22 0 0 1-4.44 0v-.64h-1.6a2.3 2.3 0 0 1-.74-4.48v-16.15a2.3 2.3 0 0 1 .75-4.48h1.6v-.56a2.22 2.22 0 0 1 4.43 0v.56h.24v-.56a2.22 2.22 0 0 1 4.44 0v.97c2.6.78 3.92 2.77 3.92 5.9 0 2.25-.72 4.07-2.01 5.17 1.37.83 2.6 2.33 2.6 5.5zm-1.41 0c0-3.02-1.16-4.09-2.9-4.76a.7.7 0 0 1-.02-1.3c1.5-.66 2.34-2.3 2.34-4.6 0-2.72-1.05-4.16-3.38-4.69a.7.7 0 0 1-.55-.68V1689a.81.81 0 0 0-1.62 0v1.26a.7.7 0 0 1-.7.7h-1.66a.7.7 0 0 1-.7-.7V1689a.81.81 0 0 0-1.62 0v1.26a.7.7 0 0 1-.7.7h-2.3a.9.9 0 0 0-.03 1.8.7.7 0 0 1 .69.7v17.31c0 .38-.3.7-.69.7a.9.9 0 0 0 .02 1.79h2.3c.4 0 .71.32.71.7v1.35a.81.81 0 0 0 1.62 0v-1.34c0-.4.32-.7.7-.7h1.66c.39 0 .7.3.7.7v1.34a.81.81 0 0 0 1.62 0v-1.51a.7.7 0 0 1 .57-.7c2.65-.52 3.94-2.47 3.94-5.94z"/></defs><g><g transform="translate(-934 -1676)"><use fill="#232836" xlink:href="#cjlza"/></g></g></svg>