<svg xmlns="http://www.w3.org/2000/svg" xmlns:xlink="http://www.w3.org/1999/xlink" width="312" height="283" viewBox="0 0 312 283"><defs><path id="3zata" d="M160 1848a80 80 0 0 0 80-80c0-23.88-92.55 80-80 80zm0-160a80 80 0 0 0-80 80c0 31.63 100.3-80 80-80z"/><path id="3zatb" d="M160 1768H60a99.9 99.9 0 0 1 4.75-30.48z"/><path id="3zatc" d="M273.93 1686.62A139.36 139.36 0 0 1 300 1768H160z"/><path id="3zate" d="M159 1628h2v280h-2z"/><path id="3zatf" d="M53.7 1859.1A139.44 139.44 0 0 1 20 1768h140z"/><path id="3zatj" d="M160 1768h120c0 24.63-7.43 47.51-20.15 66.56z"/><clipPath id="3zatd"><use fill="#fff" xlink:href="#3zata"/></clipPath><mask id="3zath" width="2" height="2" x="-1" y="-1"><path fill="#fff" d="M60 1737h100v31H60z"/><use xlink:href="#3zatb"/></mask><filter id="3zatg" width="180" height="121" x="20" y="1727" filterUnits="userSpaceOnUse"><feOffset dy="10" in="SourceGraphic" result="FeOffset1097Out"/><feGaussianBlur in="FeOffset1097Out" result="FeGaussianBlur1098Out" stdDeviation="12 12"/></filter><linearGradient id="3zati" x1="60" x2="160" y1="1753" y2="1752.52" gradientUnits="userSpaceOnUse"><stop offset="0" stop-color="#8533af"/><stop offset="1" stop-color="#e64e64"/></linearGradient><mask id="3zatl" width="2" height="2" x="-1" y="-1"><path fill="#fff" d="M160 1686h140v82H160z"/><use xlink:href="#3zatc"/></mask><filter id="3zatk" width="220" height="172" x="120" y="1676" filterUnits="userSpaceOnUse"><feOffset dy="10" in="SourceGraphic" result="FeOffset1134Out"/><feGaussianBlur in="FeOffset1134Out" result="FeGaussianBlur1135Out" stdDeviation="12 12"/></filter><linearGradient id="3zatm" x1="160" x2="300" y1="1727" y2="1727.62" gradientUnits="userSpaceOnUse"><stop offset="0" stop-color="#e64e64"/><stop offset="1" stop-color="#fe9e63"/></linearGradient></defs><g><g transform="translate(-19 -1626)"><use fill="#fff" fill-opacity="0" stroke="#dae2e9" stroke-linecap="round" stroke-miterlimit="50" stroke-width="4" clip-path="url(&quot;#3zatd&quot;)" xlink:href="#3zata"/></g><g transform="translate(-19 -1626)"><use fill="#dae2e9" xlink:href="#3zate"/></g><g transform="translate(-19 -1626)"><use fill="#8533af" xlink:href="#3zatf"/></g><g transform="translate(-19 -1626)"><g filter="url(#3zatg)"><use fill="none" stroke-opacity=".2" stroke-width="0" mask="url(&quot;#3zath&quot;)" xlink:href="#3zatb"/><use fill="#232836" fill-opacity=".2" xlink:href="#3zatb"/></g><use fill="#e64e64" xlink:href="#3zatb"/><use fill="url(#3zati)" xlink:href="#3zatb"/></g><g transform="translate(-19 -1626)"><use fill="#fe9e63" xlink:href="#3zatj"/></g><g transform="translate(-19 -1626)"><g filter="url(#3zatk)"><use fill="none" stroke-opacity=".2" stroke-width="0" mask="url(&quot;#3zatl&quot;)" xlink:href="#3zatc"/><use fill="#232836" fill-opacity=".2" xlink:href="#3zatc"/></g><use fill="#ff8438" xlink:href="#3zatc"/><use fill="url(#3zatm)" xlink:href="#3zatc"/></g></g></svg>