<svg xmlns="http://www.w3.org/2000/svg" xmlns:xlink="http://www.w3.org/1999/xlink" width="26" height="28" viewBox="0 0 26 28"><defs><path id="a" d="M1021 4885a12 12 0 1 1-24 0 12 12 0 0 1 24 0zm-10.47-5.07l-1.13-.21.32-1.7-1.75-.34-.32 1.71-2.68-.5-.27 1.43.41.08c.28.04.46.1.54.17a.4.4 0 0 1 .17.24c.02.1 0 .3-.05.6l-1.09 5.78c-.05.3-.1.49-.16.57a.46.46 0 0 1-.24.16c-.11.03-.3.02-.57-.04l-.41-.07-.27 1.43 2.68.5-.32 1.7 1.76.33.31-1.7 1 .18.13.03-.32 1.7 1.75.33.35-1.85c.3 0 .58-.03.82-.07.65-.13 1.18-.4 1.6-.8.42-.4.68-.87.78-1.42a2.46 2.46 0 0 0-.82-2.35 4.5 4.5 0 0 0-1.03-.62c.48-.07.88-.2 1.2-.38.32-.18.58-.42.78-.7a2.28 2.28 0 0 0 .24-2.3 2.7 2.7 0 0 0-1.02-1.12c-.18-.12-.4-.23-.66-.32l.34-1.83-1.75-.33zm.65 3.84c-.18.17-.42.28-.72.33-.3.05-.76.01-1.35-.1l-1.14-.21.48-2.52 1.13.2c.67.13 1.12.26 1.36.4.25.12.42.3.51.5.1.23.13.47.07.75-.04.26-.16.48-.34.65zm-.87 2.2c.27.16.45.37.56.6.1.25.12.52.07.83a1.48 1.48 0 0 1-1.31 1.24c-.3.03-.68 0-1.12-.08l-.76-.15c-.25-.05-.4-.08-.45-.12-.05-.04-.08-.1-.1-.17 0-.06.02-.25.07-.56l.42-2.24 1.34.24a4.1 4.1 0 0 1 1.28.41z"/></defs><g transform="translate(-996 -4871)"><use fill="#232836" xlink:href="#a"/></g></svg>