<svg xmlns="http://www.w3.org/2000/svg" xmlns:xlink="http://www.w3.org/1999/xlink" width="26" height="26" viewBox="0 0 26 26"><defs><path id="a" d="M883 4885a12 12 0 1 1-24 0 12 12 0 0 1 24 0zm-8.16 2.11c0-1.57-.84-2.53-2.91-3.26-1.49-.56-2.1-.93-2.1-1.5 0-.5.37-.98 1.5-.98.74 0 1.32.13 1.77.29a.74.74 0 0 0 .96-.52l.13-.53a.74.74 0 0 0-.5-.89 6.9 6.9 0 0 0-1.89-.31v-1.15c0-.21-.15-.4-.37-.4h-.93c-.21 0-.4.19-.4.4v1.27c-1.86.37-2.95 1.57-2.95 3.11 0 1.7 1.28 2.57 3.15 3.2 1.3.43 1.85.85 1.85 1.52 0 .7-.68 1.08-1.67 1.08-.79 0-1.52-.17-2.14-.41a.75.75 0 0 0-.98.5l-.16.6c-.09.36.1.74.46.87.65.25 1.51.43 2.36.47v1.26c0 .22.18.38.4.38h.92c.22 0 .39-.16.39-.38v-1.38c2.01-.35 3.1-1.68 3.1-3.24z"/></defs><g transform="translate(-858 -4872)"><use fill="#232836" xlink:href="#a"/></g></svg>