<svg xmlns="http://www.w3.org/2000/svg" xmlns:xlink="http://www.w3.org/1999/xlink" width="56" height="52" viewBox="0 0 56 52"><defs><path id="qqfpa" d="M738.63 7937.13l-.94 4.75a.78.78 0 0 1-.77.63.79.79 0 0 1-.5-.18l-3.77-3.06a.77.77 0 0 1-.1-1.1.79.79 0 0 1 1.1-.1l1.8 1.46a16.7 16.7 0 0 0-15.2-10.17 13.2 13.2 0 0 1-11.94 19.07c-3.41 0-6.82-1.29-9.42-3.87a13.17 13.17 0 0 1 0-18.7 13.42 13.42 0 0 1 17.5-1.16c.34.26.4.75.14 1.09a.79.79 0 0 1-1.1.15 11.84 11.84 0 0 0-15.43 1.02 11.62 11.62 0 0 0 0 16.5 11.76 11.76 0 0 0 8.3 3.41 11.64 11.64 0 0 0 9.34-18.74.77.77 0 0 1 .15-1.08.79.79 0 0 1 1.1.14c.16.2.3.41.45.62l.66-.01a18.26 18.26 0 0 1 16.75 10.8l.35-1.77a.78.78 0 0 1 1.53.3zm2.48 29c-2.6 2.58-6 3.87-9.41 3.87a13.32 13.32 0 0 1-11.04-5.82l-.66.02a18.26 18.26 0 0 1-16.74-10.8l-.36 1.77a.78.78 0 0 1-.92.6.78.78 0 0 1-.61-.9l.94-4.75a.79.79 0 0 1 1.26-.45l3.78 3.06a.79.79 0 0 1-1 1.2l-1.8-1.46a16.7 16.7 0 0 0 15.2 10.17 13.18 13.18 0 0 1 2.53-15.2 13.42 13.42 0 0 1 17.5-1.17c.34.26.4.75.14 1.09a.79.79 0 0 1-1.1.15 11.84 11.84 0 0 0-15.43 1.02 11.62 11.62 0 0 0 0 16.5 11.75 11.75 0 0 0 8.3 3.41 11.64 11.64 0 0 0 9.34-18.74.77.77 0 0 1 .15-1.08.79.79 0 0 1 1.1.14 13.19 13.19 0 0 1-1.17 17.37zm-4.04-6.08c0 1.7-1.96 3.06-4.59 3.28v.92a.78.78 0 1 1-1.57 0v-.92c-2.63-.22-4.6-1.58-4.6-3.28 0-.43.36-.78.8-.78.42 0 .78.35.78.78 0 .73 1.25 1.53 3.02 1.72v-4.4c-2.48-.68-4.6-1.58-4.6-3.85 0-1.7 1.97-3.06 4.6-3.29v-.91c0-.43.35-.78.79-.78.43 0 .78.35.78.78v.91c2.63.23 4.6 1.59 4.6 3.29 0 .43-.36.77-.79.77a.78.78 0 0 1-.78-.77c0-.73-1.25-1.54-3.03-1.73v4.4c2.48.69 4.6 1.58 4.6 3.86zm-6.16-8.26c-1.77.2-3.02 1-3.02 1.73 0 .96.78 1.56 3.02 2.24zm4.6 8.26c0-.96-.79-1.57-3.03-2.24v3.96c1.78-.19 3.03-1 3.03-1.72zm-23.28-19.99c.29.32.26.81-.06 1.1a5.8 5.8 0 0 1-9.66-4.29v-.88h-.89a.78.78 0 0 1-.78-.78c0-.43.35-.78.78-.78h.89v-.88a5.78 5.78 0 0 1 9.66-4.29c.32.3.35.78.06 1.1a.79.79 0 0 1-1.1.06 4.24 4.24 0 0 0-7.05 3.13v.88h4.23a.78.78 0 0 1 0 1.56h-4.23v.88a4.22 4.22 0 0 0 7.05 3.13.79.79 0 0 1 1.1.06z"/></defs><g><g transform="translate(-692 -7919)"><use fill="#232836" xlink:href="#qqfpa"/></g></g></svg>