<svg xmlns="http://www.w3.org/2000/svg" xmlns:xlink="http://www.w3.org/1999/xlink" width="50" height="51" viewBox="0 0 50 51"><defs><path id="2o9ia" d="M979.5 3305.97a.76.76 0 0 1-.68 1.1.75.75 0 0 1-.27-.05l-7.67-2.9c-1.36.34-2.77.5-4.19.52v6.92c0 .42-.34.76-.76.76h-13.58l-7.63 7.46a.75.75 0 0 1-1.28-.54v-6.92h-5.69a.76.76 0 0 1-.75-.76v-31.93c0-.42.34-.76.75-.76h14.55a17.85 17.85 0 0 1 14.24-6.87c9.63 0 17.46 7.32 17.46 16.32a16 16 0 0 1-6.84 12.96zm-14.32 4.83v-6.21c-1.41-.1-2.8-.36-4.13-.77v.87c0 .42-.33.76-.75.76h-16.9a.76.76 0 0 1-.76-.76v-2.43c0-.41.33-.75.75-.75h12.86a16.91 16.91 0 0 1-4.25-4.15h-8.6a.76.76 0 0 1-.76-.75v-2.43c0-.42.33-.76.75-.76h6.56a15.27 15.27 0 0 1-.84-4.14h-5.72a.76.76 0 0 1-.75-.76v-2.42c0-.42.33-.76.75-.76h5.98c.34-1.73 1-3.41 1.9-4.95h-12.76v30.41h5.69c.41 0 .75.34.75.76v5.89l6.57-6.43a.75.75 0 0 1 .53-.22zm-21.03-23.95v.91h4.94c0-.3.03-.6.06-.9zm0 8.09v.9h6.9c-.17-.3-.33-.6-.47-.9zm0 8.08v.91h15.4v-.65l-.6-.26zm33.13 1.9l-1.77-3.56a.76.76 0 0 1 .26-.97 14.55 14.55 0 0 0 6.72-12.07c0-8.16-7.16-14.8-15.95-14.8a16.31 16.31 0 0 0-13.25 6.55 14.01 14.01 0 0 0-2.7 8.25v.19a13.8 13.8 0 0 0 1.16 5.37c.35.8.78 1.57 1.27 2.3a15.65 15.65 0 0 0 7.54 5.87 16.93 16.93 0 0 0 10.19.55c.14-.04.3-.03.45.03zm3.7-16.6a.76.76 0 1 1-1.5 0c0-1.79-.44-3.5-1.29-5.1a.76.76 0 0 1 .31-1.03.75.75 0 0 1 1.02.32 12.28 12.28 0 0 1 1.46 5.8zm-4.03-8.16a.75.75 0 0 1-1.07.03 13.45 13.45 0 0 0-9.34-3.64.76.76 0 0 1 0-1.52c3.94 0 7.63 1.44 10.38 4.06.3.29.32.77.03 1.07zm-8.25 9.37a2.98 2.98 0 0 1-2.97 2.98 2.98 2.98 0 0 1 0-5.96 2.98 2.98 0 0 1 2.97 2.98zm-1.5 0a1.46 1.46 0 1 0-1.46 1.47c.8 0 1.45-.66 1.45-1.47zm9.55 0a2.98 2.98 0 0 1-2.97 2.98 2.98 2.98 0 0 1 0-5.96 2.98 2.98 0 0 1 2.97 2.98zm-1.5 0a1.46 1.46 0 1 0-1.46 1.47c.8 0 1.45-.66 1.45-1.47zm-14.6 0a2.98 2.98 0 0 1-2.97 2.98 2.98 2.98 0 0 1 0-5.96 2.98 2.98 0 0 1 2.97 2.98zm-1.5 0a1.46 1.46 0 1 0-1.46 1.47c.8 0 1.45-.66 1.45-1.47z"/></defs><g><g transform="translate(-935 -3270)"><use fill="#232836" xlink:href="#2o9ia"/></g></g></svg>