<svg xmlns="http://www.w3.org/2000/svg" xmlns:xlink="http://www.w3.org/1999/xlink" width="19" height="19" viewBox="0 0 19 19"><defs><path id="a" d="M455.98 838.4v10.34c0 .14-.11.26-.26.26h-3.2a.26.26 0 0 1-.27-.26V838.4c0-.14.12-.26.26-.26h3.21c.15 0 .26.12.26.26zm.26-3.28a2.12 2.12 0 1 1-4.25 0 2.12 2.12 0 0 1 4.25 0zm11.76 7.95v5.67c0 .14-.12.26-.26.26h-3.2a.26.26 0 0 1-.26-.26v-5.03c0-1.4-.1-2.48-1.41-2.48-1.2 0-1.67.67-1.67 2.4v5.11c0 .14-.11.26-.26.26h-3.2a.26.26 0 0 1-.26-.26V838.4c0-.14.12-.26.26-.26h3.07c.15 0 .26.12.26.26v.67a3.77 3.77 0 0 1 2.82-1.19c3.62 0 4.11 2.62 4.11 5.19z"/></defs><g transform="translate(-450 -831)"><use fill="#b2b8c3" xlink:href="#a"/></g></svg>