<svg xmlns="http://www.w3.org/2000/svg" xmlns:xlink="http://www.w3.org/1999/xlink" width="162" height="30" viewBox="0 0 162 30"><defs><path id="a" d="M531 77a5 5 0 1 1 .01-10.01 5 5 0 0 1-.01 10zm0-8.75a3.75 3.75 0 1 0 0 7.5 3.75 3.75 0 0 0 0-7.5zm.58 6.25l-.72-1.25h-.33v1.25h-1.25v-5h1.88a1.87 1.87 0 1 1 .98 3.47l.9 1.53zm-.42-3.75h-.63V72h.63a.63.63 0 0 0 0-1.25z"/></defs><g transform="translate(-375 -65)"><text fill="#fff" dominant-baseline="text-before-edge" font-family="Helvetica, Arial, sans-serif" font-size="90" font-style="none" font-weight="400" style="line-height:48px" transform="translate(375 66)"><tspan style="font-kerning:normal">Better</tspan><tspan style="text-transform:uppercase;font-kerning:normal">B</tspan><tspan style="font-kerning:normal">etting</tspan></text></g><g transform="translate(-375 -65)"><use fill="#fff" xlink:href="#a"/></g></svg>