<svg xmlns="http://www.w3.org/2000/svg" xmlns:xlink="http://www.w3.org/1999/xlink" width="23" height="20" viewBox="0 0 23 20"><defs><path id="a" d="M375.31 839.74l18-6.7c.39-.15.78.17.7.56l-3.23 15c-.08.36-.5.52-.81.3l-4.41-3.09a.75.75 0 0 0-.9.03l-2.44 1.92a.52.52 0 0 1-.82-.24l-1.7-5.27-4.38-1.58a.5.5 0 0 1-.01-.93zm5.44 2.6l.93 3.15c.06.22.4.2.43-.03l.24-1.72c.05-.33.2-.63.46-.85l7.07-6.35c.14-.12-.02-.32-.18-.23l-8.57 5.1a.82.82 0 0 0-.38.94z"/></defs><g transform="translate(-373 -831)"><use fill="#28aae1" xlink:href="#a"/></g></svg>