<svg xmlns="http://www.w3.org/2000/svg" xmlns:xlink="http://www.w3.org/1999/xlink" width="1173" height="333" viewBox="0 0 1173 333"><defs><path id="yho8a" d="M375 4383v-1h100v1z"/><path id="yho8b" d="M375 4347v-1h70v1z"/><path id="yho8c" d="M375 4310v-1h100v1z"/><path id="yho8d" d="M375 4274v-1h70v1z"/><path id="yho8e" d="M375 4237v-1h100v1z"/><path id="yho8f" d="M375 4201v-1h70v1z"/><path id="yho8g" d="M375 4164v-1h100v1z"/><path id="yho8h" d="M375 4128v-1h70v1z"/><path id="yho8i" d="M375 4091v-1h100v1z"/><path id="yho8j" d="M1445 4383v-1h100v1z"/><path id="yho8k" d="M1475 4347v-1h70v1z"/><path id="yho8l" d="M1445 4310v-1h100v1z"/><path id="yho8m" d="M1475 4274v-1h70v1z"/><path id="yho8n" d="M1445 4237v-1h100v1z"/><path id="yho8o" d="M1475 4201v-1h70v1z"/><path id="yho8p" d="M1445 4164v-1h100v1z"/><path id="yho8q" d="M1475 4128v-1h70v1z"/><path id="yho8r" d="M1445 4091v-1h100v1z"/><path id="yho8s" d="M375 4420v-1h1170v1z"/><path id="yho8t" d="M575 4420v-147h230v147z"/><path id="yho8u" d="M615 4420v-87h150v87z"/><path id="yho8v" d="M845 4420v-293h230v293z"/><path id="yho8w" d="M885 4420v-330h150v330z"/><path id="yho8x" d="M1115 4420v-204h230v204z"/><path id="yho8y" d="M1155 4420v-174h150v174z"/></defs><g><g transform="translate(-373 -4088)"><use fill="#e8e6fa" xlink:href="#yho8a"/></g><g transform="translate(-373 -4088)"><use fill="#e8e6fa" xlink:href="#yho8b"/></g><g transform="translate(-373 -4088)"><use fill="#e8e6fa" xlink:href="#yho8c"/></g><g transform="translate(-373 -4088)"><use fill="#e8e6fa" xlink:href="#yho8d"/></g><g transform="translate(-373 -4088)"><use fill="#e8e6fa" xlink:href="#yho8e"/></g><g transform="translate(-373 -4088)"><use fill="#e8e6fa" xlink:href="#yho8f"/></g><g transform="translate(-373 -4088)"><use fill="#e8e6fa" xlink:href="#yho8g"/></g><g transform="translate(-373 -4088)"><use fill="#e8e6fa" xlink:href="#yho8h"/></g><g transform="translate(-373 -4088)"><use fill="#e8e6fa" xlink:href="#yho8i"/></g><g transform="translate(-373 -4088)"><use fill="#e8e6fa" xlink:href="#yho8j"/></g><g transform="translate(-373 -4088)"><use fill="#e8e6fa" xlink:href="#yho8k"/></g><g transform="translate(-373 -4088)"><use fill="#e8e6fa" xlink:href="#yho8l"/></g><g transform="translate(-373 -4088)"><use fill="#e8e6fa" xlink:href="#yho8m"/></g><g transform="translate(-373 -4088)"><use fill="#e8e6fa" xlink:href="#yho8n"/></g><g transform="translate(-373 -4088)"><use fill="#e8e6fa" xlink:href="#yho8o"/></g><g transform="translate(-373 -4088)"><use fill="#e8e6fa" xlink:href="#yho8p"/></g><g transform="translate(-373 -4088)"><use fill="#e8e6fa" xlink:href="#yho8q"/></g><g transform="translate(-373 -4088)"><use fill="#e8e6fa" xlink:href="#yho8r"/></g><g transform="translate(-373 -4088)"><use fill="#e8e6fa" xlink:href="#yho8s"/></g><g opacity=".2" transform="translate(-373 -4088)"><use fill="#8533af" xlink:href="#yho8t"/></g><g transform="translate(-373 -4088)"><use fill="#8533af" xlink:href="#yho8u"/></g><g opacity=".2" transform="translate(-373 -4088)"><use fill="#e64e64" xlink:href="#yho8v"/></g><g transform="translate(-373 -4088)"><use fill="#e64e64" xlink:href="#yho8w"/></g><g opacity=".2" transform="translate(-373 -4088)"><use fill="#fe9e63" xlink:href="#yho8x"/></g><g transform="translate(-373 -4088)"><use fill="#fe9e63" xlink:href="#yho8y"/></g></g></svg>