<svg xmlns="http://www.w3.org/2000/svg" xmlns:xlink="http://www.w3.org/1999/xlink" width="111" height="111" viewBox="0 0 111 111"><defs><path id="nsira" d="M1016 7595a24 24 0 1 1 0 48 24 24 0 0 1 0-48z"/><path id="nsird" d="M1015.34 7607v6.44l-5.86-1.7V7607zm8.48 18.69c.13.22.12.5-.03.71a.63.63 0 0 1-.67.24l-4.63-1.19 1.17 4.72c.03.06.04.12.04.2 0 .35-.29.63-.64.63a.62.62 0 0 1-.34-.1l-2.71-1.77-2.74 1.7a.63.63 0 0 1-.7-.04.65.65 0 0 1-.24-.67l1.16-4.67-4.6 1.2a.63.63 0 0 1-.67-.24.65.65 0 0 1-.04-.72l1.68-2.78-1.76-2.74a.65.65 0 0 1 .02-.73.63.63 0 0 1 .67-.24l4.72 1.2-1.19-4.7a.65.65 0 0 1 .24-.68c.2-.16.48-.17.7-.03l2.08 1.3v-2.84l.65.18.62-.17V7607h5.86v4.74l-5.86 1.7v2.84l2.1-1.38a.65.65 0 0 1 .72.01c.21.16.31.43.25.68l-1.2 4.82 4.73-1.21c.25-.07.52.03.67.24.15.22.16.5.02.73l-1.76 2.74z"/><mask id="nsirc" width="2" height="2" x="-1" y="-1"><path fill="#fff" d="M990 7593h51v51h-51z"/><use xlink:href="#nsira"/></mask><filter id="nsirb" width="131" height="141" x="950" y="7583" filterUnits="userSpaceOnUse"><feOffset dy="10" in="SourceGraphic" result="FeOffset1023Out"/><feGaussianBlur in="FeOffset1023Out" result="FeGaussianBlur1024Out" stdDeviation="12 12"/></filter></defs><g><g transform="translate(-960 -7573)"><g filter="url(#nsirb)"><use fill="none" stroke-opacity=".5" stroke-width="0" mask="url(&quot;#nsirc&quot;)" xlink:href="#nsira"/><use fill="#f33853" fill-opacity=".5" xlink:href="#nsira"/></g><use fill="#f33853" xlink:href="#nsira"/></g><g transform="translate(-960 -7573)"><use fill="#fff" xlink:href="#nsird"/></g></g></svg>