<svg xmlns="http://www.w3.org/2000/svg" xmlns:xlink="http://www.w3.org/1999/xlink" width="51" height="51" viewBox="0 0 51 51"><defs><path id="dk65a" d="M971.51 1331.89v3.26a.77.77 0 0 1-1.53 0V1333l-5.16 1.94v3.32h5.93a.77.77 0 0 1 .74.95l-3.6 14.18v3.84a.77.77 0 1 1-1.54 0v-3.93c0-.07.01-.13.03-.2l3.38-13.31h-4.94v1.8c0 4-1.88 7.61-5.43 10.47a20.54 20.54 0 0 1-5.38 3.11.77.77 0 0 1-.51 0c-.11-.04-2.73-.99-5.37-3.11-3.56-2.86-5.44-6.48-5.44-10.47v-1.8h-4.94l3.38 13.32.03.18v3.94a.77.77 0 1 1-1.54 0v-3.84l-3.6-14.18a.76.76 0 0 1 .75-.95h5.92v-3.32l-5.16-1.94v2.15a.77.77 0 0 1-1.53 0v-3.26a.77.77 0 0 1 1.04-.72l5.65 2.14v-5.16h-5.92a.77.77 0 0 1-.64-1.2l3.5-5.16v-3.7a.77.77 0 0 1 1.53 0v3.94c0 .15-.05.3-.14.43l-2.81 4.16h4.48v-3.86c0-2.9 2.36-5.26 5.25-5.26h.3a5.52 5.52 0 0 1 1.97-3.52l-1.89-2.78a.77.77 0 0 1 1.27-.86l1.92 2.83a5.55 5.55 0 0 1 4.49 0l1.92-2.83a.77.77 0 1 1 1.27.86l-1.89 2.78a5.56 5.56 0 0 1 1.97 3.52h.3c2.9 0 5.25 2.36 5.25 5.26v3.86h4.48l-2.81-4.16a.77.77 0 0 1-.14-.43v-3.94a.77.77 0 0 1 1.54 0v3.7l3.49 5.16a.77.77 0 0 1-.63 1.2h-5.93v5.16l5.65-2.14a.77.77 0 0 1 1.04.72zm-27.29-9.13v4.62a3.73 3.73 0 0 0 3.72 3.73h2.73c1.22 0 2.34.54 3.09 1.43a4.02 4.02 0 0 1 3.08-1.43h2.73a3.73 3.73 0 0 0 3.72-3.73v-4.62a3.73 3.73 0 0 0-3.72-3.73h-6.53a.77.77 0 1 1 0-1.53h4.68a4.04 4.04 0 0 0-7.93 0h.19a.77.77 0 1 1 0 1.53h-2.04a3.73 3.73 0 0 0-3.72 3.73zm19.07 18.83v-10.5a5.24 5.24 0 0 1-3.72 1.55h-2.73c-1.03 0-1.94.63-2.32 1.57v16.9a.77.77 0 0 1-1.53 0v-16.9a2.49 2.49 0 0 0-2.32-1.57h-2.73c-1.45 0-2.77-.6-3.72-1.55v10.5c0 3.55 1.63 6.66 4.83 9.25 1.99 1.6 4 2.5 4.7 2.79.7-.29 2.72-1.19 4.71-2.8 3.2-2.58 4.83-5.7 4.83-9.24zm15.96-4.53v16.06a.77.77 0 0 1-1.54 0v-16.06a.77.77 0 1 1 1.54 0zm4.11-2.3v18.35a4.86 4.86 0 0 1-4.88 4.89 4.85 4.85 0 0 1-4.88-4.89v-18.36a.77.77 0 0 1 .13-1.52h2.67v-12.51l-1.28-1.8a.76.76 0 0 1-.14-.45v-7.7c0-.43.35-.77.77-.77h5.46c.42 0 .77.34.77.77v7.7c0 .16-.05.31-.14.44l-1.28 1.8v12.52h2.67a.77.77 0 0 1 .13 1.52zm-5.43-14.28v12.75h1.1v-12.75c0-.16.05-.32.14-.45l1.28-1.8v-6.7h-3.94v6.7l1.28 1.8c.1.13.14.29.14.45zm3.9 32.63v-18.34h-6.7v18.34a3.33 3.33 0 0 0 5.72 2.37c.63-.63.98-1.47.98-2.37z"/></defs><g><g transform="translate(-934 -1308)"><use fill="#232836" xlink:href="#dk65a"/></g></g></svg>