<svg xmlns="http://www.w3.org/2000/svg" xmlns:xlink="http://www.w3.org/1999/xlink" width="51" height="51" viewBox="0 0 51 51"><defs><path id="8lema" d="M1375.4 948.47a.76.76 0 0 1 1.04-1.09l1.02.98 2.07-2a.76.76 0 0 1 1.05 1.1l-2.6 2.5a.75.75 0 0 1-1.05 0zm8.6 35.51a6.02 6.02 0 1 1-10.77-3.68l-3.39-3.38a.76.76 0 0 1 1.08-1.08l3.38 3.4a6.02 6.02 0 0 1 9.7 4.75zm-1.52 0a4.5 4.5 0 1 0-9 .01 4.5 4.5 0 0 0 9 0zm-1.88-1.63c.29.3.28.78-.02 1.07l-2.6 2.5a.75.75 0 0 1-1.05 0l-1.54-1.48a.76.76 0 1 1 1.05-1.1l1.02.99 2.07-2a.76.76 0 0 1 1.07.02zm-44.6-34.34a6.02 6.02 0 1 1 10.77 3.69l5.45 5.45a.76.76 0 1 1-1.07 1.07l-5.45-5.45a6.02 6.02 0 0 1-9.7-4.75zm1.52 0a4.5 4.5 0 1 0 9 0 4.5 4.5 0 0 0-9 0zm1.9.46a.76.76 0 0 1 1.05-1.09l1.02.98 2.07-2a.76.76 0 0 1 1.05 1.1l-2.6 2.5a.75.75 0 0 1-1.05 0zm5.21 33.88c.29.3.28.78-.02 1.07l-2.6 2.5a.75.75 0 0 1-1.04 0l-1.55-1.48a.76.76 0 1 1 1.05-1.1l1.02.99 2.07-2a.76.76 0 0 1 1.07.02zm22.8-23.78a.76.76 0 0 1 0-1.07l5.8-5.8a6.02 6.02 0 1 1 1.07 1.07l-5.8 5.8a.76.76 0 0 1-1.07 0zm6.05-10.56a4.5 4.5 0 1 0 9.01 0 4.5 4.5 0 0 0-9 0zm-23.32 27.83c.3.3.3.78 0 1.08l-3.4 3.38a6.02 6.02 0 1 1-1.07-1.07l3.4-3.39c.29-.3.77-.3 1.07 0zm-3.64 8.14a4.5 4.5 0 1 0-9.01.01 4.5 4.5 0 0 0 9 0zm22.28-11.5v2.96c0 .41-.34.76-.76.76h-10.85a.76.76 0 1 1 0-1.52h10.1v-2.2c0-2.4-1.91-3.07-1.93-3.08l-.04-.02-3.17-1.26-1.6 1.66a.76.76 0 0 1-.53.23h-.02a.76.76 0 0 1-.52-.21l-1.7-1.65-3.17 1.24h-.03c-.07.04-1.93.72-1.93 3.08v2.21h1.89a.76.76 0 0 1 0 1.52h-2.64a.76.76 0 0 1-.76-.76v-2.97c0-3.35 2.64-4.4 2.93-4.5l3.46-1.35v-.56a4.26 4.26 0 0 1-1.94-2.41 2.28 2.28 0 0 1-1.3-4.06v-1.5a5.52 5.52 0 0 1 5.52-5.52h.4a5.52 5.52 0 0 1 5.5 5.52v1.5a2.27 2.27 0 0 1-1.27 4.06 4.26 4.26 0 0 1-1.94 2.4v.57l3.37 1.35a4.64 4.64 0 0 1 2.93 4.5zm-4.17-11.7v1.28a.76.76 0 0 0 .21-1.22.74.74 0 0 1-.2-.07zm-9.24 0a.75.75 0 0 1-.25.08.75.75 0 0 0 .25 1.21zm5.71-4.26a.75.75 0 0 1 1.36.28c0 .01.38 1.6 1.58 1.87h.02l.05.02.03.01.04.02h.02v-.63a4 4 0 0 0-4-4h-.4a4 4 0 0 0-4 4v.65h.01l.05-.03h.03l.04-.02.03-.01.04-.01a.52.52 0 0 1 .07-.01h.08c.04 0 3.43-.03 4.95-2.14zm-.12 10.62v-.56c-.2.03-.39.04-.59.04h-.75c-.2 0-.4-.01-.6-.04v.68l.95.92.99-1.03zm2.14-4.76v-2.43a3.67 3.67 0 0 1-1.66-1.6 8.47 8.47 0 0 1-4.55 1.77v2.26c0 1.5 1.22 2.72 2.73 2.72h.75c1.5 0 2.73-1.22 2.73-2.72z"/></defs><g><g transform="translate(-1334 -940)"><use fill="#232836" xlink:href="#8lema"/></g></g></svg>