<svg xmlns="http://www.w3.org/2000/svg" xmlns:xlink="http://www.w3.org/1999/xlink" width="51" height="51" viewBox="0 0 51 51"><defs><path id="bze8a" d="M553.94 964.32v6.94a.7.7 0 1 1-1.4 0v-6.94c0-.12-.02-.23-.04-.35l-1.11 1.11c-.3.3-.46.69-.46 1.1v5.08a.7.7 0 0 1-1.4 0v-5.08c0-.79.3-1.53.86-2.09l1.43-1.43a2.28 2.28 0 0 0-.78-.5l-2.55-.95-2.82 2.83v7.22a.7.7 0 0 1-1.4 0v-7.22l-2.83-2.83-2.54.96c-.3.11-.56.28-.78.5l1.43 1.42c.55.56.86 1.3.86 2.1v5.07a.7.7 0 0 1-1.4 0v-5.08c0-.41-.17-.8-.46-1.1l-1.12-1.11-.02.35v6.94a.7.7 0 0 1-1.41 0v-6.94c0-1.53.97-2.93 2.4-3.47l3.1-1.16a.8.8 0 0 0 .51-.74v-.55a5.96 5.96 0 0 1-3-5.18v-2.25c0-1.9.9-3.6 2.3-4.7a3.71 3.71 0 1 1 7.33 0c1.4 1.1 2.3 2.8 2.3 4.7v2.25a5.96 5.96 0 0 1-3.01 5.18v.55c0 .33.2.63.52.74l3.08 1.16a3.73 3.73 0 0 1 2.41 3.47zm-11.26-18.86a5.93 5.93 0 0 1 4.58 0 2.3 2.3 0 0 0-4.58 0zm-2.27 5.5v.43a3.98 3.98 0 0 0 1.68-1.49.7.7 0 0 1 .99-.29c.03.02 3.17 1.88 6.45 2.13v-.77a4.56 4.56 0 0 0-9.12 0zm4.56 6.82a4.56 4.56 0 0 0 4.56-4.56v-.07c-2.8-.18-5.44-1.4-6.58-2a6.77 6.77 0 0 1-2.54 1.8v.27a4.56 4.56 0 0 0 4.56 4.56zm2.22 2.75c-.4-.4-.66-.96-.67-1.55a5.94 5.94 0 0 1-3.1 0c-.01.6-.26 1.15-.67 1.55l2.22 2.22zM584 979.98v9.32a.7.7 0 1 1-1.4 0v-9.32l-.02-.24-1.88 1.88c-.3.3-.46.68-.46 1.1v6.58a.7.7 0 1 1-1.4 0v-6.59c0-.78.3-1.53.86-2.09l2.25-2.24a2.3 2.3 0 0 0-.72-.5l-4.02-1.8-2.98 2.99v10.23a.7.7 0 1 1-1.4 0v-10.23l-2.98-2.98-4.02 1.78c-.28.13-.52.3-.72.5l2.24 2.25c.56.56.87 1.3.87 2.1v6.58a.7.7 0 1 1-1.4 0v-6.59c0-.4-.17-.8-.46-1.1l-1.89-1.87-.01.24v9.32a.7.7 0 1 1-1.4 0v-9.32c0-1.47.86-2.8 2.2-3.4l4.08-1.8a.8.8 0 0 0 .48-.74v-1.12a5.96 5.96 0 0 1-2.26-4.67v-.3a1.47 1.47 0 0 1-.75-1.3v-1.4a5.97 5.97 0 0 1 5.97-5.97h1.5a5.97 5.97 0 0 1 5.96 5.97v.15c0 .54-.3 1.02-.75 1.27v1.58c0 1.9-.88 3.57-2.25 4.67v1.12c0 .32.18.6.47.73l4.09 1.82c1.34.6 2.2 1.92 2.2 3.39zm-7.86-4.81a2.2 2.2 0 0 1-.31-1.13v-.29a5.92 5.92 0 0 1-4.6 0v.3c0 .4-.12.78-.32 1.12l2.62 2.61zm1.94-6.92v-1.27c-1.94.24-5.12.2-7.3-1.99a.7.7 0 1 1 .99-1c.71.72 2.82 2.29 7.03 1.46.02 0 .04-.03.04-.05v-.15a4.56 4.56 0 0 0-4.56-4.56h-1.5a4.56 4.56 0 0 0-4.56 4.56v1.39l.01.06h.02c.34-.09.7-.3 1.04-.63a.7.7 0 0 1 .96 1.04c-.41.38-.84.65-1.28.83v.31a4.56 4.56 0 0 0 9.11 0zm-17.23 17.08a17.14 17.14 0 0 1-17.44-8.75l-.17 1.6a.7.7 0 1 1-1.4-.13l.44-4.36a.7.7 0 0 1 1.09-.52l3.64 2.44a.7.7 0 1 1-.78 1.17l-1.76-1.18a15.82 15.82 0 0 0 16.19 8.34.7.7 0 1 1 .19 1.4zm10.7-27.64a.7.7 0 0 1-.66.23l-4.32-.72a.7.7 0 0 1 .24-1.4l1.85.32a15.9 15.9 0 0 0-15.2-2.88.7.7 0 1 1-.45-1.33 17.2 17.2 0 0 1 16.51 3.1l-.57-1.71a.7.7 0 1 1 1.34-.45l1.39 4.16a.7.7 0 0 1-.14.68z"/></defs><g><g transform="translate(-534 -940)"><use fill="#232836" xlink:href="#bze8a"/></g></g></svg>