<svg xmlns="http://www.w3.org/2000/svg" xmlns:xlink="http://www.w3.org/1999/xlink" width="51" height="51" viewBox="0 0 51 51"><defs><path id="pnapa" d="M1384 1702c0 .38-.3.68-.68.68h-12a11.33 11.33 0 0 1-10.65 10.67v11.97a.68.68 0 1 1-1.37 0v-11.97a11.33 11.33 0 0 1-10.68-10.67h-11.94a.68.68 0 0 1 0-1.36h11.94a11.34 11.34 0 0 1 10.68-10.68v-11.96a.68.68 0 1 1 1.37 0v11.97a11.34 11.34 0 0 1 10.66 10.67h11.99c.37 0 .68.3.68.68zm-16.95-7.08a9.98 9.98 0 0 0-7.08-2.93 10.02 10.02 0 1 0 7.08 17.09c3.9-3.9 3.9-10.26 0-14.16zm14.26 9.28a21.16 21.16 0 0 1-6.17 12.96 21.17 21.17 0 0 1-13.03 6.18.68.68 0 0 1-.07-1.37 19.81 19.81 0 0 0 12.13-5.77c3.31-3.31 5.3-7.5 5.78-12.14a.68.68 0 1 1 1.36.14zm-.62-3.69h-.07a.68.68 0 0 1-.68-.6 19.81 19.81 0 0 0-5.77-12.1c-3.3-3.32-7.5-5.31-12.13-5.78a.68.68 0 1 1 .14-1.36c4.94.5 9.42 2.63 12.96 6.17 3.52 3.52 5.66 8 6.16 12.92a.68.68 0 0 1-.6.75zm-22.81-18.48c-4.62.48-8.8 2.47-12.1 5.77a19.8 19.8 0 0 0-5.78 12.14.68.68 0 1 1-1.36-.14c.5-4.95 2.64-9.43 6.17-12.96 3.53-3.53 8-5.66 12.93-6.17a.68.68 0 1 1 .14 1.36zm.71 40.7a.68.68 0 0 1-.75.6 21.15 21.15 0 0 1-13.03-6.17 21.17 21.17 0 0 1-6.17-12.96.68.68 0 0 1 1.36-.14 19.8 19.8 0 0 0 5.78 12.14 19.8 19.8 0 0 0 12.2 5.78c.37.04.65.37.61.75zm-.7-35.82a15.25 15.25 0 0 0-13 13 .68.68 0 0 1-1.36-.18c1-7.35 6.84-13.18 14.18-14.18a.68.68 0 1 1 .19 1.36zm.61 30.95a.68.68 0 0 1-.77.59 16.61 16.61 0 0 1-14.2-14.23.68.68 0 1 1 1.35-.18 15.24 15.24 0 0 0 13.04 13.05c.37.05.63.4.58.77zm17.92-13.64a16.61 16.61 0 0 1-14.31 14.24.68.68 0 0 1-.1-1.37 15.24 15.24 0 0 0 13.06-13.05.68.68 0 1 1 1.35.18zm-.58-3.7h-.1a.68.68 0 0 1-.67-.6 15.25 15.25 0 0 0-13.05-13.02.68.68 0 0 1 .18-1.35 16.62 16.62 0 0 1 14.22 14.2.68.68 0 0 1-.58.76zm-12.5 3.9c0 1.93-1.16 3-2.85 3.23v.54c0 .18-.24.36-.47.36-.27 0-.46-.18-.46-.36v-.5c-1.94-.02-3.26-1.07-3.26-1.84 0-.38.33-.9.72-.9.52 0 .94 1.1 2.54 1.23v-3.7c-1.41-.5-2.98-1.06-2.98-3.07 0-1.98 1.49-2.76 2.98-2.92v-.45c0-.2.19-.36.46-.36.23 0 .47.17.47.36v.42c1.06.03 2.57.36 2.57 1.13 0 .3-.22.9-.69.9-.38 0-.78-.5-1.88-.58v3.18c1.36.5 2.85 1.2 2.85 3.33zm-3.68-6.48c-.88.1-1.51.5-1.51 1.32 0 .89.67 1.22 1.5 1.53zm2.11 6.65c0-.99-.6-1.43-1.38-1.76v3.32c.85-.16 1.38-.66 1.38-1.56z"/></defs><g><g transform="translate(-1334 -1676)"><use fill="#232836" xlink:href="#pnapa"/></g></g></svg>