<svg xmlns="http://www.w3.org/2000/svg" xmlns:xlink="http://www.w3.org/1999/xlink" width="163" height="234" viewBox="0 0 163 234"><defs><path id="a" d="M1034.5 7735.95a7.3 7.3 0 0 1-13.69-.01 74.58 74.58 0 0 0-9.91-18.6 181.4 181.4 0 0 0 19.1-54.32 90.74 90.74 0 0 1 10 41.79 91.7 91.7 0 0 1-5.5 31.14zm-24.83-51.95h-99.33a169.9 169.9 0 0 1-7.78-35.54 173.75 173.75 0 0 1 6.26-69.15 7.25 7.25 0 0 1 6.97-5.13h88.42a7.26 7.26 0 0 1 6.97 5.13 173.8 173.8 0 0 1 6.26 69.18c-1.3 12.1-3.9 24-7.77 35.51zM960 7604.25c-16.03 0-29.08 12.89-29.08 28.73 0 7.67 3.03 14.88 8.52 20.3a29.06 29.06 0 0 0 20.56 8.43c7.76 0 15.06-2.99 20.56-8.42a28.35 28.35 0 0 0 8.52-20.31c0-15.84-13.04-28.73-29.08-28.73zm-16.8-87.59a22.18 22.18 0 0 1 16.8-7.64c6.5 0 12.62 2.79 16.81 7.65a169.2 169.2 0 0 1 27.17 43.14h-87.96a169.23 169.23 0 0 1 27.18-43.15zM909 7717.15v.33a73.93 73.93 0 0 0-9.8 18.45 7.3 7.3 0 0 1-13.7.02 91.66 91.66 0 0 1-5.5-31.12 90.8 90.8 0 0 1 10.01-41.82 183.38 183.38 0 0 0 12.19 40.3 187.3 187.3 0 0 0 6.8 13.84z"/></defs><g opacity=".1" transform="translate(-879 -7508)"><use fill="#232836" xlink:href="#a"/></g></svg>