<svg xmlns="http://www.w3.org/2000/svg" xmlns:xlink="http://www.w3.org/1999/xlink" width="50" height="51" viewBox="0 0 50 51"><defs><path id="7h3la" d="M584 1705.94v.68a6.31 6.31 0 0 1-6.33 6.28h-.55a6.31 6.31 0 0 1-6.33-6.28v-.68-.05-.02l.01-.04v-.03l.01-.03.02-.04v-.02l.02-.05 5.43-11.98h-.22a8.51 8.51 0 0 1-6.16-2.6 3.77 3.77 0 0 0-2.69-1.15h-4.44v3.21a.7.7 0 0 1-.7.7.7.7 0 0 1-.7-.7v-3.2h-1.74v27.64h1.74v-20.05c0-.38.32-.7.7-.7.39 0 .7.32.7.7v20.05h7.2c1.18 0 2.14.95 2.14 2.12v1.24h1.23c1.2 0 2.17.97 2.17 2.15v2.22a.7.7 0 0 1-.7.69h-28.62a.7.7 0 0 1-.7-.7v-2.2c0-1.2.98-2.16 2.17-2.16h1.23v-1.24c0-1.17.95-2.12 2.13-2.12h7.2v-27.65h-4.16c-1.21 0-2.34.5-3.18 1.37a7.82 7.82 0 0 1-5.68 2.38h-.5l5.45 11.98.02.05v.02l.02.04v.06l.01.04v.75a6.31 6.31 0 0 1-6.32 6.28h-.55a6.31 6.31 0 0 1-6.33-6.28v-.68-.05-.02l.01-.04v-.03l.01-.03.01-.04.01-.02.02-.05 5.43-11.98h-3.97c-.7 0-1.26-.56-1.26-1.24v-1.66c0-.69.57-1.25 1.26-1.25h6.42c1.22 0 2.35-.48 3.18-1.36a7.82 7.82 0 0 1 5.68-2.38h4.43v-1.55a3.51 3.51 0 0 1 2.27-6.24 3.51 3.51 0 1 1 2.27 6.24v1.55h4.43c2.18 0 4.25.86 5.68 2.38a4.34 4.34 0 0 0 3.18 1.36h6.42c.7 0 1.26.56 1.26 1.25v1.66c0 .68-.57 1.24-1.26 1.24h-3.99l5.45 11.98.02.05v.02l.02.04v.06l.02.04v.07zm-25.66-24.41c0 .76.4 1.43 1 1.8l.08.05.04.03.11.05.04.02.1.04.03.02.13.04h.03l.1.04h.04a2.2 2.2 0 0 0 .28.04h.04a2.39 2.39 0 0 0 .44 0l.02-.01c.05 0 .1-.02.14-.03h.03l.1-.03.04-.01a3.08 3.08 0 0 0 .26-.1l.04-.02.1-.05.05-.03.08-.04a2.14 2.14 0 0 0-1.16-3.95c-1.2 0-2.16.96-2.16 2.14zm3 3.43l-.16.03-.05.01-.17.03h-.04l-.2.02a3.24 3.24 0 0 1-.65-.02h-.03c-.06 0-.11-.02-.17-.03h-.05l-.16-.04h-.03v.83h1.74v-.84h-.03zm-12.53 21.68H538.4c0 2.69 2.22 4.88 4.93 4.88h.55a4.92 4.92 0 0 0 4.93-4.88zm-5.21-12l-4.82 10.6h9.65zm7.42 24.33c-.4 0-.74.33-.74.73v1.24h1.36a.7.7 0 1 1 0 1.39h-3.98a.77.77 0 0 0-.77.76v1.52h27.22v-1.52a.77.77 0 0 0-.77-.76H556.1a.7.7 0 0 1-.7-.7c0-.38.32-.7.7-.7h14.61v-1.23c0-.4-.33-.73-.73-.73zm25.04-26.67h6.28v-1.38h-6.28c-1.6 0-3.1-.64-4.2-1.8a6.41 6.41 0 0 0-4.66-1.95h-13.4c-1.8 0-3.5.71-4.66 1.94a5.73 5.73 0 0 1-4.2 1.81h-6.28v1.38h6.54c1.8 0 3.5-.71 4.66-1.95a5.73 5.73 0 0 1 4.2-1.8h13.15c1.38 0 2.73.57 3.7 1.57a7.12 7.12 0 0 0 5.15 2.18zm-3.49 12.95h9.65l-4.83-10.62zm10.03 1.39h-10.4c0 2.69 2.2 4.88 4.92 4.88h.55a4.92 4.92 0 0 0 4.93-4.88z"/></defs><g><g transform="translate(-535 -1676)"><use fill="#232836" xlink:href="#7h3la"/></g></g></svg>