<svg xmlns="http://www.w3.org/2000/svg" xmlns:xlink="http://www.w3.org/1999/xlink" width="20" height="20" viewBox="0 0 20 20"><defs><path id="a" d="M505.17 843.18l-.67.3.3.68a1.4 1.4 0 1 1-2.56 1.14l-.3-.67-3.86 1.72.3.68a1.4 1.4 0 1 1-2.56 1.14l-.3-.67-.67.3a1.4 1.4 0 0 1-1.15-2.56l.68-.3-1.73-3.86-.68.3a1.4 1.4 0 0 1-1.14-2.56l.67-.3-.3-.68a1.4 1.4 0 1 1 2.56-1.14l.3.68 3.86-1.73-.3-.68a1.4 1.4 0 0 1 2.56-1.14l.3.67.68-.3a1.4 1.4 0 1 1 1.14 2.56l-.67.3 1.73 3.86.67-.3a1.4 1.4 0 0 1 1.14 2.56zm-4.37-1.11l-1.73-3.87-3.86 1.73 1.72 3.87z"/></defs><g transform="translate(-488 -831)"><use fill="#28aae1" xlink:href="#a"/></g></svg>