<svg xmlns="http://www.w3.org/2000/svg" xmlns:xlink="http://www.w3.org/1999/xlink" width="48" height="51" viewBox="0 0 48 51"><defs><path id="8rmya" d="M668.54 6596.28l-.61 14.05a.7.7 0 0 1-.7.67h-.04a.7.7 0 0 1-.67-.73l.61-14.05a3.8 3.8 0 0 0-.17-1.31l-2.26 2.25a3.41 3.41 0 0 0-1.01 2.44v10.7a.7.7 0 0 1-1.42 0v-10.7c0-1.3.51-2.51 1.43-3.43l2.56-2.55c-.41-.49-.95-.88-1.57-1.12l-4.07-1.56a7.92 7.92 0 0 1-7.35 5.03 7.82 7.82 0 0 1-7.34-5.03l-4.07 1.56c-.63.24-1.16.63-1.57 1.12l2.56 2.55a4.8 4.8 0 0 1 1.42 3.43v10.7a.7.7 0 0 1-1.4 0v-10.7c0-.92-.37-1.78-1.02-2.44l-2.26-2.25c-.13.42-.2.86-.17 1.31l.6 14.05a.7.7 0 0 1-.67.73h-.03a.7.7 0 0 1-.7-.67l-.61-14.05a5.2 5.2 0 0 1 3.34-5.09l5.32-2.04c.6-.23 1-.8 1-1.45v-1.93a7.56 7.56 0 0 1-1.9-3.77c-.2.01-.4 0-.6-.05a2.16 2.16 0 0 1-1.61-2.12v-.53c0-.87.49-1.63 1.21-1.97-.21-.87-.52-2.43-.52-4.32 0-3.4 2.44-4.02 3.3-4.13.61-.5 2.6-1.93 5.69-2.1 3.31-.18 5.92.71 7.54 2.57 1.68 1.94 2.22 4.83 1.55 8.38.41.4.66.95.66 1.56v.54c0 1-.67 1.9-1.6 2.12-.2.04-.41.06-.61.05a7.56 7.56 0 0 1-1.9 3.77v1.94c0 .63.4 1.21 1 1.44l5.31 2.04a5.2 5.2 0 0 1 3.35 5.1zm-15.27-9.46c3 0 5.58-2.14 6.12-5.08.13-.7.77-1.2 1.46-1.14a.7.7 0 0 0 .2-.02c.3-.07.53-.4.53-.75v-.54c0-.35-.24-.67-.55-.73-.2-.04-.63.03-.76.1a.7.7 0 0 1-1.06-.55l-.08-1.17a13.61 13.61 0 0 0-3.15-2 10.44 10.44 0 0 0-7.96-.47.7.7 0 1 1-.46-1.33 11.97 11.97 0 0 1 9.05.55 14.26 14.26 0 0 1 3.7 2.4c.12.13.2.29.2.46l.05.61c.15-.01.3-.02.44-.01.5-2.96.06-5.33-1.28-6.88-1.33-1.52-3.54-2.24-6.4-2.09a8.28 8.28 0 0 0-4.99 1.88.7.7 0 0 1-.49.2s-.57.01-1.12.36c-.7.44-1.06 1.24-1.06 2.39 0 1.91.35 3.5.54 4.2.3.09.58.24.82.44.4-.37.82-.97.99-1.48a.7.7 0 0 1 1.34.43 5.4 5.4 0 0 1-1.79 2.43 1 1 0 0 1-1.37-.21.68.68 0 0 0-.67-.26c-.31.05-.55.38-.55.74v.53c0 .36.22.68.52.75a.7.7 0 0 0 .2.02 1.4 1.4 0 0 1 1.47 1.14 6.21 6.21 0 0 0 6.11 5.08zm6.03 3.62a2.97 2.97 0 0 1-1.83-2.73v-.74a7.62 7.62 0 0 1-8.4 0v.74c0 1.19-.73 2.27-1.82 2.73a6.42 6.42 0 0 0 6.02 4.12 6.5 6.5 0 0 0 6.03-4.12zm23.7-14.71a12.76 12.76 0 0 1-21.31 9.46.7.7 0 0 1-.06-1 .7.7 0 0 1 1-.05 11.36 11.36 0 0 0 18.96-8.41 11.35 11.35 0 0 0-19.35-8.05.7.7 0 0 1-1 0 .7.7 0 0 1 0-1 12.76 12.76 0 0 1 21.75 9.05zm-8.28 2.96c0 1.52-1.61 2.74-3.77 2.96v.84a.7.7 0 0 1-1.41 0v-.84c-2.17-.22-3.77-1.44-3.77-2.96a.7.7 0 0 1 1.4 0c0 .65.95 1.37 2.37 1.55v-3.99c-2.05-.63-3.77-1.44-3.77-3.48 0-1.53 1.6-2.75 3.77-2.97v-.84a.7.7 0 0 1 1.4 0v.84c2.17.22 3.78 1.44 3.78 2.97a.7.7 0 0 1-1.41 0c0-.66-.94-1.37-2.36-1.56v4c2.04.62 3.77 1.44 3.77 3.48zm-5.18-7.48c-1.42.19-2.36.9-2.36 1.56 0 .87.6 1.4 2.36 2zm3.77 7.48c0-.88-.6-1.41-2.36-2v3.55c1.42-.18 2.36-.9 2.36-1.55z"/></defs><g><g transform="translate(-636 -6561)"><use fill="#232836" xlink:href="#8rmya"/></g></g></svg>