<?xml version="1.0" encoding="utf-8"?>
<!-- Generator: Adobe Illustrator 21.0.0, SVG Export Plug-In . SVG Version: 6.00 Build 0)  -->
<svg version="1.1" id="Capa_1" xmlns="http://www.w3.org/2000/svg" xmlns:xlink="http://www.w3.org/1999/xlink" x="0px" y="0px"
	 viewBox="0 0 19 19" style="enable-background:new 0 0 19 19;" xml:space="preserve">
<style type="text/css">
	.st0{enable-background:new    ;}
	.st1{fill:#B2B8C3;}
</style>
<g class="st0">
	<path class="st1" d="M18.2,5.8C18.7,7,19,8.2,19,9.5c0,1.3-0.3,2.5-0.8,3.7c-0.5,1.2-1.2,2.2-2,3c-0.8,0.8-1.9,1.5-3,2
		C12,18.7,10.8,19,9.5,19c-1.3,0-2.5-0.3-3.7-0.8c-1.2-0.5-2.2-1.2-3-2c-0.8-0.8-1.5-1.9-2-3C0.3,12,0,10.8,0,9.5
		C0,8.2,0.3,7,0.8,5.8c0.5-1.2,1.2-2.2,2-3s1.9-1.5,3-2S8.2,0,9.5,0c1.3,0,2.5,0.3,3.7,0.8s2.2,1.2,3,2C17.1,3.6,17.7,4.6,18.2,5.8z
		 M12.6,13.8l1.6-7.3c0.1-0.3,0-0.5-0.1-0.7c-0.1-0.1-0.3-0.2-0.5-0.1L4.3,9.3C4.1,9.3,4,9.4,3.9,9.5c-0.1,0.1-0.1,0.2,0,0.3
		C4,9.9,4.1,10,4.2,10l2.3,0.7L12,7.3c0.1-0.1,0.3-0.1,0.3-0.1c0,0,0,0.1,0,0.2l-4.4,4l-0.2,2.4c0.2,0,0.3-0.1,0.5-0.2l1.1-1.1
		l2.4,1.7C12.2,14.5,12.5,14.3,12.6,13.8z"/>
</g>
</svg>
