<svg xmlns="http://www.w3.org/2000/svg" xmlns:xlink="http://www.w3.org/1999/xlink" width="19" height="17" viewBox="0 0 19 17"><defs><path id="a" d="M429.62 835.61c-.25.12-.51.22-.78.3.32-.37.55-.82.7-1.3.03-.11 0-.23-.09-.3a.24.24 0 0 0-.29-.02c-.56.35-1.16.6-1.8.76a3.33 3.33 0 0 0-2.4-1.05c-1.89 0-3.42 1.65-3.42 3.67 0 .16 0 .32.02.47a8.62 8.62 0 0 1-6.02-3.42.25.25 0 0 0-.22-.1.26.26 0 0 0-.2.14 3.87 3.87 0 0 0 .35 4.22 2.81 2.81 0 0 1-.46-.22.24.24 0 0 0-.26 0 .28.28 0 0 0-.13.24v.05c0 1.32.67 2.5 1.68 3.15a2.6 2.6 0 0 1-.26-.04.25.25 0 0 0-.24.1.3.3 0 0 0-.05.26 3.53 3.53 0 0 0 2.51 2.46 5.77 5.77 0 0 1-3.97.94.26.26 0 0 0-.27.18c-.04.13 0 .26.1.33a8.81 8.81 0 0 0 5 1.57c3.5 0 5.68-1.76 6.9-3.24a10.7 10.7 0 0 0 2.38-7 6.97 6.97 0 0 0 1.54-1.74.3.3 0 0 0-.02-.33.25.25 0 0 0-.3-.08z"/></defs><g transform="translate(-412 -832)"><use fill="#b2b8c3" xlink:href="#a"/></g></svg>