<svg xmlns="http://www.w3.org/2000/svg" xmlns:xlink="http://www.w3.org/1999/xlink" width="51" height="51" viewBox="0 0 51 51"><defs><path id="nuc0a" d="M562.61 2016.46a9 9 0 0 1 11.62-13.48.7.7 0 1 1-.75 1.2 7.6 7.6 0 0 0-9.8 11.38.7.7 0 0 1-1.07.9zm-4.77-5.84c0-6.4 5.22-11.62 11.62-11.62 6.41 0 11.63 5.21 11.63 11.62a11.64 11.64 0 0 1-23.25 0zm1.4 0a10.23 10.23 0 0 0 20.44 0 10.23 10.23 0 0 0-20.43 0zM584 2046.3a.7.7 0 0 1-.7.7h-34.83a.7.7 0 1 1 0-1.4h13.71c.12 0 .21-.1.21-.21v-10.2l-6.4 3.2c-.4.2-.85.35-1.3.41v1.14c0 .9-.73 1.64-1.63 1.64h-1.77c-.9 0-1.64-.73-1.64-1.64v-1.14c-.45-.06-.88-.2-1.29-.4l-6.4-3.2v10.19c0 .11.09.2.2.2h3.58a.7.7 0 1 1 0 1.4h-9.04a.7.7 0 1 1 0-1.4h3.86l-.01-.2v-10.9h-.02a1.6 1.6 0 0 1-.89-1.45v-3.99c0-.89.72-1.61 1.61-1.61h4.58v-2.03c0-.89.72-1.61 1.61-1.61h9.47c.89 0 1.6.72 1.6 1.61v2.03h2.08a1.6 1.6 0 0 1-.02-.25v-1.82c0-.9.72-1.62 1.61-1.62h14.56c.9 0 1.62.73 1.62 1.62v1.82c0 .33-.1.65-.28.9.17.26.28.58.28.92v1.82c0 .33-.1.65-.28.9.17.27.28.58.28.92v1.82c0 .33-.1.65-.28.9.17.26.28.58.28.92v1.82c0 .33-.1.65-.28.9.17.27.28.58.28.92v1.82c0 .33-.1.65-.28.9.17.27.28.58.28.92v1.82c0 .07 0 .14-.02.2h4.96c.39 0 .7.32.7.7zm-36.77-18.86h9.88v-2.03a.2.2 0 0 0-.2-.2h-9.47a.2.2 0 0 0-.2.2zm6.06 8.92c0-.13-.1-.24-.23-.24h-1.77c-.13 0-.23.1-.23.24v3.58c0 .13.1.24.23.24h1.77c.13 0 .23-.1.23-.24zm10.01-3.32v-3.99a.2.2 0 0 0-.2-.2h-21.85a.2.2 0 0 0-.2.2v3.99c0 .08.04.15.11.18l7.83 3.92a3 3 0 0 0 .66.23v-1.01c0-.9.74-1.64 1.64-1.64h1.77c.9 0 1.64.73 1.64 1.64v1.01a3 3 0 0 0 .66-.23l7.83-3.92a.2.2 0 0 0 .11-.18zm13.65-5.85v-1.82a.2.2 0 0 0-.2-.21h-14.57a.2.2 0 0 0-.2.2v1.83c0 .11.12.25.23.25h.88c.9 0 1.62.72 1.62 1.61v3.99a1.6 1.6 0 0 1-.9 1.44l-.01.01v10.9c0 .07 0 .14-.02.2h12.96c.12 0 .21-.09.21-.2v-1.82a.2.2 0 0 0-.2-.21.7.7 0 1 1 0-1.4c.1 0 .2-.1.2-.21v-1.82a.2.2 0 0 0-.2-.21.7.7 0 1 1 0-1.4c.1 0 .2-.1.2-.21v-1.82a.2.2 0 0 0-.2-.21.7.7 0 1 1 0-1.4c.1 0 .2-.1.2-.21v-1.82a.2.2 0 0 0-.2-.21.7.7 0 1 1 0-1.4c.1 0 .2-.1.2-.21V2029a.2.2 0 0 0-.2-.21.7.7 0 1 1 0-1.4c.1 0 .2-.1.2-.21zm-1.6 15.47a.7.7 0 0 1-.7.7h-9.34a.7.7 0 1 1 0-1.4h9.35c.38 0 .7.3.7.7zm-.08-36.94a.7.7 0 0 1 1.07-.9 9 9 0 0 1-11.74 13.38.7.7 0 0 1 .76-1.18 7.6 7.6 0 0 0 9.9-11.3zm-1.16 2.8a1.1 1.1 0 1 1 .61 1.89l-1.78 1.74a.1.1 0 0 0-.03.1l.42 2.45a1.1 1.1 0 0 1-1.6 1.17l-2.22-1.16a.1.1 0 0 0-.1 0l-2.2 1.16c-.38.2-.83.16-1.17-.09a1.1 1.1 0 0 1-.44-1.08l.42-2.46a.1.1 0 0 0-.03-.1l-1.79-1.73a1.1 1.1 0 0 1-.28-1.14c.14-.4.48-.69.9-.75l2.47-.36a.1.1 0 0 0 .08-.06l1.1-2.23a1.1 1.1 0 0 1 1-.62c.42 0 .8.23.99.62l1.1 2.23a.1.1 0 0 0 .08.06zm-.8 1.3l-1.87-.27c-.5-.07-.92-.38-1.14-.82l-.84-1.7-.83 1.7c-.22.44-.65.75-1.14.82l-1.87.27 1.35 1.32c.36.35.52.85.44 1.34l-.32 1.86 1.67-.88c.44-.23.97-.23 1.4 0l1.68.88-.32-1.86c-.08-.49.08-.99.44-1.34zm-33.62 1.78c-.09-.82.2-1.58.84-2.21a2.57 2.57 0 0 1 3.66 0l.25.25.24-.25a2.57 2.57 0 0 1 3.67 0c.63.63.93 1.4.84 2.21-.23 2.13-2.98 4.09-4.15 4.83a1.12 1.12 0 0 1-1.2 0c-1.18-.74-3.92-2.7-4.15-4.83zm1.4-.15c.12 1.2 1.85 2.72 3.35 3.7 1.5-.98 3.22-2.5 3.35-3.7.04-.4-.1-.73-.43-1.06a1.18 1.18 0 0 0-1.68 0l-.6.59a.9.9 0 0 1-1.29 0l-.6-.6a1.18 1.18 0 0 0-1.67 0c-.34.34-.48.68-.43 1.07zm34.27 27.57a.7.7 0 0 1-.7.7h-9.35a.7.7 0 1 1 0-1.4h9.35c.38 0 .7.3.7.7zm0-7.28a.7.7 0 0 1-.7.7h-8.47a.7.7 0 1 1 0-1.4h8.47c.38 0 .7.3.7.7zm0 3.64a.7.7 0 0 1-.7.7h-9.35a.7.7 0 1 1 0-1.4h9.35c.38 0 .7.3.7.7zm0-7.28a.7.7 0 0 1-.7.7h-8.47a.7.7 0 1 1 0-1.4h8.47c.38 0 .7.3.7.7zM536 2018.08v-12c0-.9.72-1.62 1.61-1.62h13.65c.9 0 1.62.72 1.62 1.61v12.01c0 .9-.73 1.62-1.62 1.62h-3.2l-2.76 3.07a1.16 1.16 0 0 1-1.72 0l-2.76-3.07h-3.2c-.9 0-1.62-.73-1.62-1.62zm1.4 0c0 .12.1.21.21.21h3.53c.2 0 .39.09.52.24l2.78 3.1 2.78-3.1a.7.7 0 0 1 .52-.24h3.52c.12 0 .21-.1.21-.2v-12.02a.2.2 0 0 0-.2-.2H537.6a.2.2 0 0 0-.2.2z"/></defs><g><g transform="translate(-534 -1997)"><use fill="#232836" xlink:href="#nuc0a"/></g></g></svg>