<svg xmlns="http://www.w3.org/2000/svg" viewBox="0 0 264.75 186.21"><defs><style>.cls-1,.cls-2{fill:#28aae1;}.cls-1{fill-rule:evenodd;opacity:0.12;}</style></defs><title>youtube_icon_blue</title><g id="Layer_2" data-name="Layer 2"><g id="Layer_1-2" data-name="Layer 1"><path id="The_Sharpness" data-name="The Sharpness" class="cls-1" d="M105,53.06l62.73,41.89,8.8-4.57Z"/><g id="Lozenge"><path class="cls-2" d="M262.1,40.17s-2.59-18.24-10.52-26.28C241.51,3.35,230.23,3.3,225.05,2.68,188,0,132.43,0,132.43,0h-.12S76.74,0,39.7,2.68c-5.18.62-16.46.67-26.53,11.21-7.94,8-10.52,26.28-10.52,26.28A400.38,400.38,0,0,0,0,83V103.1A400.38,400.38,0,0,0,2.65,146s2.58,18.24,10.52,26.28c10.07,10.54,23.3,10.21,29.19,11.32,21.18,2,90,2.66,90,2.66s55.63-.08,92.68-2.76c5.17-.62,16.46-.67,26.53-11.21,7.94-8,10.52-26.28,10.52-26.28a401,401,0,0,0,2.64-42.85V83A401,401,0,0,0,262.1,40.17ZM105,127.44V53.06l71.54,37.32Z"/></g></g></g></svg>